<svg id="svg" version="1.1" xmlns="http://www.w3.org/2000/svg" xmlns:xlink="http://www.w3.org/1999/xlink" width="400"
    height="400" viewBox="0, 0, 400,400">
    <g id="svgg">
        <path id="path0"
            d="M200.682 33.157 C 198.263 34.728,197.552 35.709,197.725 37.235 C 197.857 38.401,193.809 44.125,192.963 43.970 C 191.131 43.633,189.741 53.359,191.138 56.732 L 191.594 57.834 192.479 56.880 C 192.965 56.355,193.542 55.926,193.759 55.926 C 193.977 55.926,197.346 55.435,201.244 54.834 C 206.468 54.030,210.367 53.677,216.062 53.496 L 223.791 53.249 223.535 50.652 L 223.279 48.056 224.695 48.318 C 225.474 48.462,226.596 48.676,227.188 48.793 C 228.114 48.975,228.238 48.906,228.077 48.299 C 227.904 47.650,221.481 37.074,221.481 37.437 C 221.481 37.525,221.659 38.180,221.875 38.891 C 222.484 40.893,222.877 44.083,222.540 44.292 C 221.066 45.203,219.254 43.569,216.996 39.294 C 215.749 36.932,214.680 34.945,214.620 34.879 C 214.492 34.737,205.406 32.252,204.500 32.111 C 204.164 32.058,203.722 31.912,203.519 31.786 C 203.315 31.659,202.038 32.276,200.682 33.157 M218.658 47.062 C 218.843 47.228,218.789 48.384,218.531 49.747 L 218.079 52.142 215.243 52.376 C 213.684 52.506,211.590 52.709,210.592 52.830 L 208.776 53.048 209.014 51.061 C 209.145 49.968,209.254 48.052,209.256 46.803 L 209.259 44.532 213.796 45.651 C 216.292 46.266,218.480 46.901,218.658 47.062 M187.039 72.184 C 183.387 73.141,183.663 73.527,190.099 76.457 L 195.741 79.025 209.815 92.938 C 239.284 122.071,239.492 122.288,240.165 124.707 C 240.494 125.887,241.074 127.519,241.454 128.333 C 243.184 132.043,249.941 157.457,251.283 165.303 C 251.505 166.604,251.603 166.699,252.521 166.503 C 253.070 166.387,254.459 166.214,255.609 166.119 C 256.758 166.025,258.425 165.780,259.312 165.575 C 260.200 165.371,261.468 165.199,262.130 165.194 C 262.792 165.189,263.333 165.039,263.333 164.861 C 263.333 164.683,264.750 163.857,266.481 163.026 C 270.074 161.302,269.881 161.828,269.020 156.111 L 268.407 152.037 264.498 148.051 L 260.590 144.066 261.353 135.273 L 262.116 126.481 259.299 117.068 L 256.481 107.655 251.447 104.105 C 248.678 102.153,245.095 99.408,243.484 98.005 C 241.322 96.122,239.461 94.933,236.374 93.463 C 233.941 92.305,230.476 90.219,228.089 88.475 C 223.520 85.139,222.736 84.815,219.231 84.815 C 217.788 84.815,214.413 84.282,210.978 83.513 L 205.166 82.211 199.342 77.892 C 192.956 73.155,190.431 71.463,189.835 71.517 C 189.620 71.537,188.362 71.837,187.039 72.184 M171.296 84.478 C 169.216 85.236,168.148 85.356,168.148 84.831 C 168.148 84.219,153.467 90.518,152.307 91.628 C 152.048 91.876,148.425 97.797,144.255 104.785 L 136.674 117.492 134.667 126.298 C 133.255 132.492,132.139 136.407,130.904 139.496 L 129.148 143.889 126.148 146.311 L 123.148 148.734 122.682 154.796 C 122.426 158.130,122.285 160.927,122.369 161.011 C 122.453 161.095,125.996 162.058,130.243 163.151 C 134.489 164.243,139.963 165.901,142.407 166.836 C 144.852 167.770,147.001 168.573,147.183 168.619 C 147.365 168.666,148.448 166.870,149.590 164.630 L 151.666 160.556 151.502 156.296 C 151.412 153.954,151.329 151.126,151.317 150.013 L 151.296 147.990 154.543 146.073 C 157.678 144.223,157.983 143.916,163.403 137.171 C 168.514 130.810,170.635 128.767,171.001 129.852 C 171.322 130.802,172.643 132.605,172.901 132.446 C 173.064 132.345,173.913 132.509,174.787 132.810 C 175.994 133.226,176.500 133.255,176.889 132.932 C 178.771 131.371,189.769 113.266,189.459 112.241 C 189.363 111.925,188.440 107.833,187.407 103.148 C 186.375 98.463,185.441 94.337,185.332 93.979 C 184.867 92.453,180.667 87.339,179.466 86.837 C 178.785 86.552,177.223 85.731,175.996 85.012 C 173.483 83.539,173.780 83.572,171.296 84.478 M271.010 179.411 C 270.424 179.855,266.743 180.711,262.870 181.303 C 261.173 181.562,261.166 181.371,262.981 184.244 C 264.223 186.211,264.576 187.211,265.037 190.069 C 266.112 196.734,268.507 202.372,271.770 205.918 L 274.586 208.977 277.299 208.803 C 280.558 208.594,280.246 208.873,281.308 205.220 C 282.157 202.301,282.164 202.143,281.659 197.588 L 281.144 192.937 277.331 188.304 C 273.131 183.201,273.108 183.163,272.778 180.648 C 272.539 178.823,272.146 178.549,271.010 179.411 M120.365 186.204 C 120.240 192.100,119.570 195.341,116.913 202.912 L 114.184 210.685 115.266 216.546 L 116.347 222.407 119.526 226.667 C 121.274 229.009,122.755 230.988,122.818 231.064 C 123.061 231.362,131.489 230.260,132.001 229.864 C 132.299 229.633,133.509 227.611,134.689 225.370 L 136.834 221.296 137.094 214.815 C 137.352 208.354,137.349 208.313,136.038 202.027 L 134.724 195.720 136.238 192.709 C 137.377 190.443,137.640 189.612,137.302 189.350 C 136.394 188.648,120.376 185.672,120.365 186.204 M207.616 283.056 C 207.374 288.150,207.437 288.847,209.447 303.148 C 211.400 317.045,211.542 318.554,211.745 327.492 C 211.933 335.792,212.037 337.045,212.554 337.205 C 212.881 337.306,215.513 337.801,218.403 338.305 L 223.659 339.222 230.886 344.878 L 238.113 350.533 245.035 352.642 C 253.093 355.097,251.946 355.297,256.019 350.728 C 260.868 345.288,261.189 345.897,250.523 340.314 L 241.787 335.741 236.327 327.963 C 233.324 323.685,230.766 320.011,230.644 319.798 C 230.521 319.585,231.075 312.918,231.875 304.983 C 233.285 290.997,233.664 284.074,233.022 284.074 C 232.851 284.074,231.354 284.257,229.695 284.480 C 226.959 284.848,226.156 284.791,221.028 283.862 L 215.377 282.838 211.899 280.308 C 209.987 278.916,208.297 277.778,208.144 277.778 C 207.992 277.778,207.754 280.153,207.616 283.056 M162.409 296.759 C 162.321 297.014,161.946 298.556,161.575 300.185 L 160.901 303.148 163.067 315.926 C 165.564 330.655,166.193 338.173,165.311 342.738 C 163.462 352.310,163.852 354.341,169.156 362.735 C 171.440 366.350,183.429 381.852,184.539 382.626 C 184.888 382.869,202.869 378.884,203.622 378.397 C 204.422 377.880,201.214 372.774,189.261 355.538 C 186.076 350.945,183.338 346.974,183.177 346.713 C 181.101 343.354,182.427 315.244,185.221 303.402 C 186.485 298.040,186.459 298.293,185.684 298.936 C 185.232 299.311,183.415 299.477,178.740 299.568 L 172.407 299.691 167.806 297.993 C 162.723 296.118,162.638 296.099,162.409 296.759 "
            stroke="none" fill="{{human_skin_color}}" fill-rule="evenodd"></path>
        <path id="path1"
            d="M204.350 30.463 C 203.437 31.161,203.420 31.919,204.314 32.071 C 205.415 32.258,214.485 34.729,214.620 34.879 C 214.680 34.945,215.749 36.932,216.996 39.294 C 219.228 43.520,221.356 45.434,222.525 44.265 C 223.313 43.477,220.799 34.235,219.453 32.971 C 217.759 31.380,205.759 29.387,204.350 30.463 M190.600 36.457 C 188.995 38.560,189.520 41.075,192.016 43.246 C 193.267 44.333,193.332 44.315,194.630 42.525 C 198.410 37.308,198.467 37.066,196.179 35.959 C 193.661 34.740,191.781 34.908,190.600 36.457 "
            stroke="none" fill="{{human_hair_color}}" fill-rule="evenodd"></path>
        <path id="path2"
            d="M211.265 46.950 C 209.888 47.882,210.023 50.343,211.517 51.574 C 214.000 53.619,216.580 49.879,214.276 47.576 C 213.385 46.685,212.063 46.410,211.265 46.950 M224.427 50.601 C 223.942 51.876,224.336 53.861,225.233 54.673 C 226.832 56.120,227.899 52.668,226.509 50.546 C 225.731 49.358,224.891 49.380,224.427 50.601 M183.056 169.895 C 183.616 169.980,184.532 169.980,185.093 169.895 C 185.653 169.810,185.194 169.741,184.074 169.741 C 182.954 169.741,182.495 169.810,183.056 169.895 M194.537 170.270 C 195.301 170.350,196.551 170.350,197.315 170.270 C 198.079 170.190,197.454 170.125,195.926 170.125 C 194.398 170.125,193.773 170.190,194.537 170.270 M193.148 190.000 C 192.868 190.454,195.425 190.454,196.481 190.000 C 197.027 189.766,196.715 189.675,195.300 189.656 C 194.242 189.641,193.274 189.796,193.148 190.000 "
            stroke="none" fill="{{human_eye_color}}" fill-rule="evenodd"></path>
        <path id="path3"
            d="M211.296 53.708 C 206.983 53.912,195.330 55.485,193.333 56.133 C 193.028 56.232,192.170 57.153,191.427 58.180 L 190.076 60.046 190.621 62.338 C 191.304 65.213,191.076 67.083,189.848 68.693 C 188.567 70.373,188.611 70.547,190.613 71.720 C 191.561 72.276,195.231 74.866,198.768 77.475 L 205.198 82.221 211.025 83.491 C 221.491 85.772,224.676 85.547,223.169 82.632 C 221.875 80.131,222.015 78.129,223.673 75.420 C 225.318 72.733,226.243 69.483,227.227 62.930 C 227.972 57.970,228.006 58.174,226.019 55.624 L 224.259 53.367 220.370 53.415 C 218.231 53.442,214.148 53.573,211.296 53.708 M176.231 76.970 C 172.598 79.671,168.148 84.071,168.148 84.962 C 168.148 85.368,169.254 85.195,171.508 84.435 L 173.734 83.686 175.980 85.003 C 177.216 85.727,178.785 86.552,179.466 86.837 C 180.667 87.339,184.867 92.453,185.332 93.979 C 185.441 94.337,186.375 98.463,187.407 103.148 C 188.440 107.833,189.363 111.925,189.459 112.241 C 189.682 112.978,185.362 120.553,180.888 127.272 C 176.724 133.525,176.810 133.440,175.156 132.919 C 174.459 132.700,173.556 132.484,173.148 132.439 C 172.721 132.392,172.094 131.774,171.667 130.981 C 171.037 129.811,170.787 129.638,170.000 129.828 C 168.457 130.202,168.469 130.328,170.699 137.785 L 172.856 145.000 173.103 154.074 L 173.350 163.148 172.046 164.973 C 168.767 169.557,171.780 169.994,207.963 170.175 L 225.000 170.260 232.778 172.177 C 237.056 173.231,240.897 174.122,241.315 174.158 C 241.951 174.213,250.718 169.749,251.569 168.937 C 252.268 168.270,247.910 149.414,244.015 136.244 L 241.753 128.599 237.483 124.022 C 235.134 121.504,224.205 110.381,213.196 99.303 L 193.180 79.163 187.303 76.433 C 180.230 73.148,181.450 73.089,176.231 76.970 M229.444 186.697 L 218.704 189.987 208.827 189.994 C 201.293 189.999,198.899 190.110,198.735 190.463 C 198.564 190.828,198.471 190.824,198.296 190.444 C 198.127 190.078,197.445 190.024,195.464 190.220 C 193.544 190.409,192.923 190.365,193.115 190.053 C 193.259 189.820,193.242 189.628,193.077 189.626 C 190.520 189.599,181.002 188.733,176.214 188.092 C 168.932 187.118,169.663 186.739,169.213 191.725 C 169.014 193.933,168.354 198.824,167.747 202.593 C 167.140 206.361,165.729 215.861,164.611 223.704 C 162.973 235.192,162.184 239.546,160.548 246.111 C 159.180 251.604,158.074 257.297,157.155 263.582 L 155.791 272.905 156.466 275.134 C 157.138 277.353,157.137 277.372,156.306 279.421 L 155.470 281.480 156.480 285.550 C 157.372 289.145,157.743 289.984,159.651 292.718 L 161.812 295.816 167.175 297.761 L 172.537 299.705 178.769 299.548 L 185.000 299.391 188.818 297.253 C 192.607 295.130,192.654 295.087,195.056 291.479 L 197.476 287.844 197.362 283.417 L 197.248 278.990 198.902 277.135 C 200.217 275.660,200.888 274.362,202.180 270.789 C 204.093 265.495,203.817 265.704,204.841 268.782 C 205.296 270.150,206.279 272.726,207.025 274.508 L 208.382 277.749 211.879 280.293 L 215.377 282.838 221.021 283.860 L 226.666 284.883 231.496 284.243 L 236.326 283.604 238.006 281.709 C 238.929 280.667,240.469 278.231,241.428 276.296 L 243.172 272.778 242.838 269.182 C 242.511 265.653,242.524 265.553,243.514 263.863 C 244.247 262.612,244.859 260.451,245.748 255.977 C 246.421 252.588,248.250 245.315,249.814 239.815 L 252.656 229.815 253.225 219.815 C 253.779 210.087,253.453 199.055,252.332 189.575 L 252.128 187.854 246.823 185.594 C 240.417 182.864,242.358 182.741,229.444 186.697 "
            stroke="none" fill="{{primary_color}}" fill-rule="evenodd"></path>
    </g>
</svg>