<svg id="svg" version="1.1" xmlns="http://www.w3.org/2000/svg" xmlns:xlink="http://www.w3.org/1999/xlink" width="400"
    height="400" viewBox="0, 0, 400,400">
    <g id="svgg">
        <path id="path0"
            d="M210.674 45.492 C 208.630 46.222,208.076 46.667,209.209 46.667 C 210.372 46.667,210.524 47.442,209.903 50.210 L 209.356 52.645 212.295 52.526 L 215.234 52.407 214.985 50.249 L 214.735 48.091 216.442 48.347 C 218.651 48.678,218.573 48.310,216.024 46.389 C 213.732 44.661,213.232 44.578,210.674 45.492 M193.038 49.181 C 188.415 52.105,187.199 53.385,186.539 56.015 L 186.301 56.963 191.761 55.332 C 194.765 54.435,197.931 53.515,198.796 53.288 C 200.142 52.935,200.371 52.734,200.375 51.900 C 200.378 51.364,200.478 50.561,200.598 50.116 C 200.794 49.384,200.659 49.294,199.204 49.190 L 197.593 49.074 197.701 47.685 C 197.761 46.921,197.761 46.297,197.701 46.298 C 197.641 46.298,195.543 47.596,193.038 49.181 M169.194 83.714 C 168.038 84.311,166.985 85.136,166.854 85.548 C 166.724 85.959,166.413 86.296,166.163 86.296 C 165.914 86.296,163.781 89.755,161.424 93.981 L 157.137 101.667 149.158 123.333 C 139.930 148.393,135.556 161.436,135.556 163.890 C 135.556 163.972,137.097 164.499,138.981 165.060 C 142.010 165.961,142.653 166.312,144.525 168.084 C 145.689 169.187,146.862 170.004,147.131 169.901 C 147.783 169.651,149.404 163.756,150.210 158.704 C 150.916 154.282,154.097 146.711,163.565 126.922 C 165.690 122.479,167.383 118.627,167.326 118.362 C 167.190 117.733,169.672 112.593,170.111 112.593 C 170.297 112.593,171.130 113.132,171.963 113.792 C 176.323 117.245,181.231 114.198,183.593 106.571 L 184.942 102.217 184.252 96.978 C 183.701 92.799,183.399 91.545,182.757 90.777 C 182.315 90.248,181.839 89.450,181.700 89.004 C 181.284 87.677,178.931 85.899,175.334 84.195 C 171.360 82.312,171.836 82.350,169.194 83.714 M198.023 83.346 C 198.194 83.510,202.083 85.847,206.667 88.540 C 211.250 91.232,217.030 94.829,219.511 96.532 C 225.239 100.465,225.230 100.464,224.235 97.012 C 223.272 93.672,221.095 90.885,217.094 87.870 L 213.532 85.185 210.192 85.179 C 207.842 85.174,205.498 84.857,202.283 84.109 C 199.769 83.525,197.853 83.181,198.023 83.346 M230.605 126.970 C 229.165 128.931,228.758 130.339,226.484 141.210 L 225.262 147.049 226.279 149.543 C 226.838 150.915,227.593 152.850,227.956 153.844 C 228.319 154.837,230.684 158.772,233.213 162.588 L 237.809 169.526 240.294 168.647 C 242.905 167.722,245.926 165.031,245.926 163.630 C 245.926 163.273,244.342 159.883,242.406 156.098 C 238.888 149.220,238.883 149.207,235.555 137.325 C 231.673 123.462,232.267 124.705,230.605 126.970 M249.894 177.695 C 249.352 178.261,248.074 179.220,247.054 179.825 C 244.820 181.152,244.842 180.899,246.676 184.134 C 247.935 186.356,248.255 187.375,248.737 190.697 C 249.637 196.888,251.857 203.258,254.349 206.794 L 256.413 209.723 258.653 209.489 C 259.885 209.360,261.015 209.131,261.164 208.979 C 261.934 208.194,262.431 202.621,262.129 198.148 L 261.816 193.519 258.346 188.333 C 256.438 185.481,254.237 181.693,253.457 179.914 C 251.891 176.348,251.449 176.072,249.894 177.695 M131.665 182.682 C 131.573 182.938,131.008 185.481,130.409 188.333 C 129.810 191.185,128.454 196.602,127.396 200.370 C 125.169 208.303,125.216 207.596,126.470 214.165 C 127.364 218.846,129.780 224.509,132.111 227.388 C 132.382 227.723,139.452 226.631,139.849 226.193 C 142.846 222.887,143.908 208.564,141.847 199.240 L 140.656 193.850 141.831 189.702 C 143.106 185.203,143.097 185.021,141.578 184.642 C 141.015 184.502,139.806 184.011,138.889 183.552 C 136.876 182.543,131.927 181.947,131.665 182.682 M200.895 288.409 C 200.733 289.489,201.152 296.434,201.995 306.650 C 203.051 319.444,203.354 325.031,203.345 331.534 C 203.332 341.008,203.107 340.370,206.460 340.370 C 211.316 340.370,211.471 340.445,216.408 345.169 L 220.926 349.492 225.476 350.926 L 230.027 352.361 232.606 349.801 C 236.527 345.910,236.523 345.899,229.399 341.178 L 223.631 337.357 219.935 329.699 L 216.239 322.041 216.873 304.527 C 217.222 294.894,217.420 286.926,217.314 286.820 C 217.208 286.714,215.727 286.869,214.023 287.165 C 210.774 287.729,202.998 287.617,201.782 286.988 C 201.252 286.714,201.117 286.929,200.895 288.409 M163.709 299.597 C 163.307 301.980,163.409 303.233,165.003 315.444 C 166.940 330.287,167.467 337.100,166.975 340.926 C 166.000 348.503,165.916 353.344,166.732 354.951 C 168.983 359.386,178.777 372.181,180.178 372.517 C 180.706 372.644,192.159 370.187,192.464 369.881 C 192.933 369.413,191.230 365.485,189.021 361.939 C 187.718 359.848,184.806 354.682,182.551 350.458 L 178.449 342.778 178.256 336.111 C 177.894 323.615,178.886 304.445,180.228 298.009 C 180.395 297.206,180.334 297.016,179.980 297.235 C 177.989 298.465,169.001 298.439,164.758 297.190 C 164.256 297.042,164.067 297.475,163.709 299.597 "
            stroke="none" fill="{{human_skin_color}}" fill-rule="evenodd"></path>
        <path id="path1"
            d="M197.714 24.360 C 195.424 26.018,193.480 27.729,193.093 28.426 C 192.457 29.570,192.314 29.631,190.194 29.658 C 188.967 29.674,187.630 29.764,187.222 29.858 C 186.815 29.952,185.585 30.036,184.488 30.045 L 182.496 30.060 182.752 33.553 L 183.008 37.045 181.847 37.689 C 179.335 39.082,179.377 39.009,180.056 40.842 C 180.438 41.870,180.543 42.679,180.338 43.002 C 178.974 45.156,181.117 58.700,183.139 60.708 L 184.105 61.667 184.822 60.741 C 185.216 60.231,185.543 59.527,185.547 59.174 C 185.557 58.396,186.464 55.938,187.539 53.771 C 188.273 52.293,191.344 50.017,197.335 46.510 C 197.705 46.294,197.792 46.562,197.706 47.651 L 197.593 49.074 199.300 49.185 C 200.526 49.264,201.623 49.020,203.189 48.320 C 205.927 47.096,212.550 44.815,213.365 44.815 C 213.892 44.815,216.941 46.976,218.452 48.421 C 219.739 49.651,220.024 48.822,219.223 46.182 C 218.201 42.820,217.751 40.051,218.108 39.332 C 219.483 36.568,220.277 33.038,219.578 32.798 C 218.955 32.582,215.867 32.283,213.910 32.248 C 212.633 32.225,212.201 31.961,210.465 30.140 C 208.494 28.072,208.468 28.059,206.654 28.233 L 204.827 28.409 204.121 26.519 C 203.733 25.480,203.204 23.921,202.946 23.056 C 202.335 21.011,202.340 21.010,197.714 24.360 "
            stroke="none" fill="{{human_hair_color}}" fill-rule="evenodd"></path>
        <path id="path2"
            d="M206.667 52.615 C 200.294 52.869,199.517 52.979,195.556 54.191 C 193.213 54.907,190.089 55.847,188.613 56.280 C 185.940 57.064,185.929 57.073,185.692 58.556 C 185.550 59.445,185.051 60.447,184.454 61.044 C 182.775 62.724,182.639 63.291,182.701 68.355 C 182.789 75.454,182.556 76.461,180.805 76.560 C 179.455 76.636,168.265 79.390,167.925 79.730 C 167.545 80.110,166.020 86.296,166.306 86.296 C 166.477 86.296,166.725 85.955,166.858 85.537 C 167.000 85.088,168.046 84.310,169.417 83.634 L 171.736 82.491 175.226 84.144 C 178.922 85.894,181.281 87.666,181.700 89.004 C 181.839 89.450,182.315 90.248,182.757 90.777 C 183.399 91.545,183.701 92.799,184.252 96.978 L 184.942 102.217 183.593 106.571 C 181.231 114.198,176.323 117.245,171.963 113.792 C 169.957 112.203,169.992 112.188,168.466 115.278 L 167.140 117.963 170.401 125.840 C 174.971 136.875,176.135 142.450,175.774 151.559 L 175.529 157.747 172.996 163.410 C 171.492 166.771,170.595 169.218,170.788 169.428 C 171.230 169.907,180.996 170.303,193.275 170.340 L 203.401 170.370 209.666 172.430 L 215.930 174.489 219.909 172.102 C 222.098 170.788,224.429 169.599,225.090 169.458 C 226.058 169.251,226.230 169.081,225.977 168.582 C 225.804 168.242,225.275 164.995,224.801 161.368 L 223.939 154.774 224.978 148.961 C 225.550 145.764,226.730 139.956,227.601 136.054 L 229.185 128.960 233.111 123.509 C 235.270 120.511,237.034 117.871,237.031 117.640 C 237.028 117.410,236.480 115.177,235.813 112.677 L 234.601 108.132 225.541 101.648 C 216.718 95.334,216.149 94.995,203.711 88.665 C 190.977 82.185,182.414 77.255,182.802 76.627 C 183.614 75.313,188.804 77.399,196.044 81.951 C 198.518 83.506,205.751 85.170,210.076 85.179 L 213.300 85.185 212.737 83.611 C 211.951 81.417,212.301 79.765,214.440 75.590 C 217.416 69.779,218.721 65.895,219.225 61.351 L 219.671 57.331 217.076 54.777 C 215.648 53.372,214.264 52.249,213.999 52.283 C 213.735 52.316,210.435 52.466,206.667 52.615 M209.539 185.754 L 204.449 188.103 195.835 188.467 C 187.201 188.832,177.038 188.377,172.593 187.426 C 169.730 186.814,169.808 186.757,168.937 190.093 C 167.729 194.717,164.576 218.949,163.323 233.239 C 162.711 240.215,161.539 250.465,160.718 256.017 C 159.897 261.569,159.070 268.444,158.881 271.296 C 158.692 274.148,158.289 277.565,157.986 278.889 C 157.641 280.393,157.430 283.242,157.424 286.481 L 157.415 291.667 159.856 293.808 C 166.256 299.422,174.756 299.891,184.260 295.152 L 189.022 292.778 190.804 288.148 C 192.064 284.874,192.589 282.976,192.594 281.667 C 192.610 278.123,192.945 277.808,194.033 280.314 C 196.625 286.284,203.935 288.747,214.259 287.127 C 218.094 286.525,220.289 285.308,223.230 282.154 C 224.551 280.737,225.915 273.657,225.679 269.444 C 225.545 267.067,225.663 265.421,226.092 263.704 C 227.609 257.617,228.388 213.243,227.222 199.259 C 226.925 195.694,226.679 191.315,226.674 189.527 L 226.667 186.276 224.336 186.514 C 222.073 186.746,221.912 186.703,218.842 185.043 C 214.995 182.963,215.702 182.909,209.539 185.754 "
            stroke="none" fill="{{primary_color}}" fill-rule="evenodd"></path>
        <path id="path3"
            d="M203.426 48.193 C 201.580 49.042,201.389 49.941,202.761 51.313 C 204.911 53.463,207.760 50.883,206.283 48.124 C 205.818 47.254,205.450 47.263,203.426 48.193 M216.481 49.861 C 215.430 50.630,215.507 53.449,216.609 54.551 C 218.331 56.273,219.420 52.791,217.907 50.401 C 217.277 49.406,217.162 49.363,216.481 49.861 "
            stroke="none" fill="{{human_eye_color}}" fill-rule="evenodd"></path>
    </g>
</svg>