<svg id="svg" version="1.1" xmlns="http://www.w3.org/2000/svg" xmlns:xlink="http://www.w3.org/1999/xlink" width="400"
    height="400" viewBox="0, 0, 400,400">
    <g id="svgg">
        <path id="path0"
            d="M217.485 44.063 C 215.388 44.222,213.600 44.425,213.511 44.514 C 213.421 44.603,215.364 45.161,217.828 45.753 C 222.913 46.975,222.862 46.922,222.125 50.210 L 221.579 52.645 224.517 52.526 L 227.456 52.407 227.210 50.278 C 226.936 47.906,226.854 47.967,229.626 48.501 L 231.288 48.822 229.626 47.380 C 225.481 43.787,224.536 43.529,217.485 44.063 M210.556 45.855 C 209.333 46.637,206.560 48.392,204.393 49.755 C 200.794 52.018,200.365 52.410,199.456 54.269 C 198.052 57.138,197.968 57.130,205.623 54.870 L 212.542 52.828 212.783 50.210 C 212.915 48.771,212.968 46.882,212.901 46.014 L 212.778 44.435 210.556 45.855 M181.416 83.714 C 180.260 84.311,179.207 85.136,179.077 85.548 C 178.946 85.959,178.635 86.296,178.386 86.296 C 178.136 86.296,176.003 89.755,173.646 93.981 L 169.359 101.667 161.380 123.333 C 152.152 148.393,147.778 161.436,147.778 163.890 C 147.778 163.972,149.319 164.499,151.204 165.060 C 154.233 165.961,154.875 166.312,156.747 168.084 C 157.911 169.187,159.084 170.004,159.353 169.901 C 160.005 169.651,161.626 163.756,162.432 158.704 C 163.138 154.282,166.319 146.711,175.787 126.922 C 177.912 122.479,179.605 118.627,179.548 118.362 C 179.413 117.733,181.894 112.593,182.333 112.593 C 182.519 112.593,183.352 113.132,184.185 113.792 C 188.545 117.245,193.453 114.198,195.815 106.571 L 197.164 102.217 196.474 96.978 C 195.923 92.799,195.621 91.545,194.979 90.777 C 194.537 90.248,194.061 89.450,193.922 89.004 C 193.507 87.677,191.153 85.899,187.556 84.195 C 183.582 82.312,184.058 82.350,181.416 83.714 M210.245 83.346 C 210.416 83.510,214.306 85.847,218.889 88.540 C 223.472 91.232,229.252 94.829,231.734 96.532 C 237.461 100.465,237.452 100.464,236.457 97.012 C 235.494 93.672,233.317 90.885,229.317 87.870 L 225.754 85.185 222.414 85.179 C 220.064 85.174,217.720 84.857,214.505 84.109 C 211.992 83.525,210.075 83.181,210.245 83.346 M242.827 126.970 C 241.388 128.931,240.980 130.339,238.706 141.210 L 237.484 147.049 238.501 149.543 C 239.061 150.915,239.815 152.850,240.178 153.844 C 240.541 154.837,242.907 158.772,245.435 162.588 L 250.032 169.526 252.516 168.647 C 255.127 167.722,258.148 165.031,258.148 163.630 C 258.148 163.273,256.564 159.883,254.628 156.098 C 251.110 149.220,251.105 149.207,247.778 137.325 C 243.895 123.462,244.490 124.705,242.827 126.970 M262.116 177.695 C 261.574 178.261,260.296 179.220,259.276 179.825 C 257.042 181.152,257.064 180.899,258.898 184.134 C 260.157 186.356,260.477 187.375,260.959 190.697 C 261.859 196.888,264.080 203.258,266.571 206.794 L 268.635 209.723 270.876 209.489 C 272.108 209.360,273.237 209.131,273.386 208.979 C 274.156 208.194,274.653 202.621,274.351 198.148 L 274.039 193.519 270.569 188.333 C 268.660 185.481,266.460 181.693,265.679 179.914 C 264.113 176.348,263.671 176.072,262.116 177.695 M143.887 182.682 C 143.796 182.938,143.231 185.481,142.632 188.333 C 142.032 191.185,140.677 196.602,139.618 200.370 C 137.391 208.303,137.438 207.596,138.692 214.165 C 139.586 218.846,142.002 224.509,144.333 227.388 C 144.605 227.723,151.674 226.631,152.071 226.193 C 155.068 222.887,156.130 208.564,154.070 199.240 L 152.879 193.850 154.054 189.702 C 155.328 185.203,155.319 185.021,153.800 184.642 C 153.238 184.502,152.028 184.011,151.111 183.552 C 149.099 182.543,144.149 181.947,143.887 182.682 M213.117 288.409 C 212.956 289.489,213.374 296.434,214.217 306.650 C 215.273 319.444,215.576 325.031,215.567 331.534 C 215.554 341.008,215.329 340.370,218.682 340.370 C 223.538 340.370,223.693 340.445,228.631 345.169 L 233.148 349.492 237.699 350.926 L 242.249 352.361 244.828 349.801 C 248.749 345.910,248.745 345.899,241.621 341.178 L 235.853 337.357 232.157 329.699 L 228.461 322.041 229.095 304.527 C 229.444 294.894,229.642 286.926,229.536 286.820 C 229.430 286.714,227.949 286.869,226.246 287.165 C 222.996 287.729,215.221 287.617,214.004 286.988 C 213.474 286.714,213.339 286.929,213.117 288.409 M175.931 299.597 C 175.529 301.980,175.632 303.233,177.225 315.444 C 179.162 330.287,179.689 337.100,179.197 340.926 C 178.222 348.503,178.139 353.344,178.954 354.951 C 181.205 359.386,190.999 372.181,192.400 372.517 C 192.928 372.644,204.381 370.187,204.686 369.881 C 205.155 369.413,203.452 365.485,201.243 361.939 C 199.940 359.848,197.029 354.682,194.773 350.458 L 190.671 342.778 190.478 336.111 C 190.116 323.615,191.108 304.445,192.450 298.009 C 192.617 297.206,192.556 297.016,192.202 297.235 C 190.211 298.465,181.224 298.439,176.980 297.190 C 176.478 297.042,176.289 297.475,175.931 299.597 "
            stroke="none" fill="{{human_skin_color}}" fill-rule="evenodd"></path>
        <path id="path1"
            d="M204.498 29.722 C 202.370 32.861,201.463 33.752,199.444 34.685 C 198.249 35.238,197.709 35.854,196.646 37.875 C 195.922 39.253,194.635 41.088,193.786 41.953 C 191.347 44.439,190.217 47.586,190.329 51.582 C 190.408 54.370,190.306 55.016,189.616 56.134 C 188.834 57.398,188.829 57.487,189.425 59.181 C 189.763 60.141,190.127 61.193,190.234 61.519 C 190.341 61.845,190.201 62.345,189.923 62.630 C 187.545 65.069,187.476 65.334,187.685 71.203 C 187.932 78.114,187.893 78.053,191.573 77.423 C 193.107 77.161,194.548 76.831,194.775 76.691 C 195.314 76.358,195.801 70.166,195.549 66.852 C 195.369 64.482,195.453 64.051,196.529 61.840 C 197.176 60.509,197.902 58.676,198.142 57.766 C 199.242 53.588,200.152 52.421,204.393 49.758 C 206.560 48.396,209.167 46.754,210.185 46.109 C 211.204 45.464,212.227 44.827,212.460 44.693 C 213.244 44.243,223.110 43.719,224.555 44.051 C 225.414 44.249,227.025 45.254,228.691 46.632 C 232.187 49.524,232.630 49.336,231.286 45.527 C 230.881 44.380,230.792 43.296,230.971 41.713 C 231.341 38.447,229.300 34.639,226.355 33.099 C 225.232 32.511,223.608 31.188,222.642 30.076 L 220.926 28.097 218.131 28.340 C 215.639 28.556,215.181 28.491,213.915 27.744 C 212.620 26.980,212.454 26.959,212.053 27.509 C 211.655 28.053,211.397 28.060,209.417 27.588 C 208.210 27.299,207.019 27.057,206.771 27.050 C 206.522 27.043,205.500 28.245,204.498 29.722 "
            stroke="none" fill="{{human_hair_color}}" fill-rule="evenodd"></path>
        <path id="path2"
            d="M218.889 52.615 C 212.516 52.869,211.739 52.979,207.778 54.191 C 205.435 54.907,202.310 55.848,200.833 56.281 C 198.815 56.873,198.148 57.230,198.148 57.720 C 198.148 58.079,197.495 59.724,196.696 61.376 C 195.897 63.028,195.321 64.457,195.416 64.552 C 195.687 64.822,195.640 72.706,195.356 74.597 L 195.101 76.296 196.651 76.296 C 198.172 76.296,203.046 78.669,208.267 81.951 C 210.741 83.506,217.973 85.170,222.298 85.179 L 225.523 85.185 224.959 83.611 C 224.173 81.417,224.523 79.765,226.662 75.590 C 229.638 69.779,230.943 65.895,231.447 61.351 L 231.893 57.331 229.298 54.777 C 227.870 53.372,226.486 52.249,226.222 52.283 C 225.957 52.316,222.657 52.466,218.889 52.615 M192.222 77.311 C 190.898 77.586,189.431 77.742,188.962 77.657 C 188.224 77.523,180.529 79.348,180.125 79.752 C 179.760 80.116,178.253 86.296,178.529 86.296 C 178.699 86.296,178.947 85.955,179.080 85.537 C 179.223 85.088,180.268 84.310,181.640 83.634 L 183.958 82.491 187.449 84.144 C 191.144 85.894,193.503 87.666,193.922 89.004 C 194.061 89.450,194.537 90.248,194.979 90.777 C 195.621 91.545,195.923 92.799,196.474 96.978 L 197.164 102.217 195.815 106.571 C 193.453 114.198,188.545 117.245,184.185 113.792 C 182.179 112.203,182.214 112.188,180.688 115.278 L 179.362 117.963 182.623 125.840 C 187.193 136.875,188.357 142.450,187.997 151.559 L 187.751 157.747 185.218 163.410 C 183.714 166.771,182.817 169.218,183.010 169.428 C 183.453 169.907,193.218 170.303,205.497 170.340 L 215.624 170.370 221.888 172.430 L 228.152 174.489 232.132 172.102 C 234.320 170.788,236.652 169.599,237.312 169.458 C 238.280 169.251,238.453 169.081,238.199 168.582 C 238.026 168.242,237.497 164.995,237.023 161.368 L 236.161 154.774 237.200 148.961 C 237.772 145.764,238.953 139.956,239.824 136.054 L 241.407 128.960 245.333 123.509 C 247.493 120.511,249.257 117.871,249.254 117.640 C 249.250 117.410,248.702 115.177,248.035 112.677 L 246.823 108.132 237.763 101.649 C 228.927 95.325,228.385 95.003,215.741 88.562 C 208.611 84.930,200.944 80.801,198.704 79.385 L 194.630 76.812 192.222 77.311 M221.761 185.754 L 216.671 188.103 208.058 188.467 C 199.423 188.832,189.260 188.377,184.815 187.426 C 181.953 186.814,182.030 186.757,181.159 190.093 C 179.951 194.717,176.798 218.949,175.545 233.239 C 174.933 240.215,173.761 250.465,172.940 256.017 C 172.119 261.569,171.293 268.444,171.104 271.296 C 170.915 274.148,170.512 277.565,170.208 278.889 C 169.863 280.393,169.652 283.242,169.647 286.481 L 169.638 291.667 172.078 293.808 C 178.478 299.422,186.978 299.891,196.482 295.152 L 201.244 292.778 203.026 288.148 C 204.286 284.874,204.811 282.976,204.817 281.667 C 204.833 278.123,205.167 277.808,206.255 280.314 C 208.847 286.284,216.157 288.747,226.481 287.127 C 230.316 286.525,232.512 285.308,235.452 282.154 C 236.773 280.737,238.137 273.657,237.901 269.444 C 237.767 267.067,237.886 265.421,238.314 263.704 C 239.831 257.617,240.610 213.243,239.444 199.259 C 239.147 195.694,238.901 191.315,238.897 189.527 L 238.889 186.276 236.558 186.514 C 234.296 186.746,234.134 186.703,231.065 185.043 C 227.218 182.963,227.925 182.909,221.761 185.754 "
            stroke="none" fill="{{primary_color}}" fill-rule="evenodd"></path>
        <path id="path3"
            d="M214.968 46.950 C 213.592 47.882,213.727 50.343,215.221 51.574 C 217.703 53.619,220.283 49.879,217.980 47.576 C 217.089 46.685,215.766 46.410,214.968 46.950 M228.704 49.861 C 227.652 50.630,227.729 53.449,228.831 54.551 C 230.553 56.273,231.643 52.791,230.129 50.401 C 229.500 49.406,229.385 49.363,228.704 49.861 "
            stroke="none" fill="{{human_eye_color}}" fill-rule="evenodd"></path>
    </g>
</svg>