<svg id="svg" version="1.1" xmlns="http://www.w3.org/2000/svg" xmlns:xlink="http://www.w3.org/1999/xlink" width="400"
    height="400" viewBox="0, 0, 400,400">
    <g id="svgg">
        <path id="path0"
            d="M216.481 44.194 L 213.148 44.630 217.728 45.729 C 222.921 46.977,222.863 46.918,222.125 50.210 L 221.579 52.645 224.517 52.526 L 227.456 52.407 227.207 50.249 L 226.958 48.091 228.757 48.357 L 230.556 48.624 228.553 46.812 C 227.451 45.815,226.218 44.765,225.813 44.478 C 224.829 43.781,220.624 43.653,216.481 44.194 M208.333 47.231 C 206.093 48.517,203.389 50.032,202.325 50.597 C 201.262 51.163,199.374 52.652,198.130 53.907 L 195.868 56.189 196.312 57.817 C 196.708 59.267,196.802 59.367,197.174 58.736 C 198.091 57.184,198.974 56.778,205.611 54.850 L 212.503 52.847 212.730 50.961 C 213.045 48.338,213.019 44.807,212.685 44.854 C 212.532 44.875,210.574 45.945,208.333 47.231 M181.416 83.714 C 180.260 84.311,179.207 85.136,179.077 85.548 C 178.946 85.959,178.635 86.296,178.386 86.296 C 178.136 86.296,176.003 89.755,173.646 93.981 L 169.359 101.667 161.380 123.333 C 152.152 148.393,147.778 161.436,147.778 163.890 C 147.778 163.972,149.319 164.499,151.204 165.060 C 154.233 165.961,154.875 166.312,156.747 168.084 C 157.911 169.187,159.084 170.004,159.353 169.901 C 160.005 169.651,161.626 163.756,162.432 158.704 C 163.138 154.282,166.319 146.711,175.787 126.922 C 177.912 122.479,179.605 118.627,179.548 118.362 C 179.413 117.733,181.894 112.593,182.333 112.593 C 182.519 112.593,183.352 113.132,184.185 113.792 C 188.545 117.245,193.453 114.198,195.815 106.571 L 197.164 102.217 196.474 96.978 C 195.923 92.799,195.621 91.545,194.979 90.777 C 194.537 90.248,194.061 89.450,193.922 89.004 C 193.507 87.677,191.153 85.899,187.556 84.195 C 183.582 82.312,184.058 82.350,181.416 83.714 M210.245 83.346 C 210.416 83.510,214.306 85.847,218.889 88.540 C 223.472 91.232,229.252 94.829,231.734 96.532 C 237.461 100.465,237.452 100.464,236.457 97.012 C 235.494 93.672,233.317 90.885,229.317 87.870 L 225.754 85.185 222.414 85.179 C 220.064 85.174,217.720 84.857,214.505 84.109 C 211.992 83.525,210.075 83.181,210.245 83.346 M242.827 126.970 C 241.388 128.931,240.980 130.339,238.706 141.210 L 237.484 147.049 238.501 149.543 C 239.061 150.915,239.815 152.850,240.178 153.844 C 240.541 154.837,242.907 158.772,245.435 162.588 L 250.032 169.526 252.516 168.647 C 255.127 167.722,258.148 165.031,258.148 163.630 C 258.148 163.273,256.564 159.883,254.628 156.098 C 251.110 149.220,251.105 149.207,247.778 137.325 C 243.895 123.462,244.490 124.705,242.827 126.970 M262.116 177.695 C 261.574 178.261,260.296 179.220,259.276 179.825 C 257.042 181.152,257.064 180.899,258.898 184.134 C 260.157 186.356,260.477 187.375,260.959 190.697 C 261.859 196.888,264.080 203.258,266.571 206.794 L 268.635 209.723 270.876 209.489 C 272.108 209.360,273.237 209.131,273.386 208.979 C 274.156 208.194,274.653 202.621,274.351 198.148 L 274.039 193.519 270.569 188.333 C 268.660 185.481,266.460 181.693,265.679 179.914 C 264.113 176.348,263.671 176.072,262.116 177.695 M143.887 182.682 C 143.796 182.938,143.231 185.481,142.632 188.333 C 142.032 191.185,140.677 196.602,139.618 200.370 C 137.391 208.303,137.438 207.596,138.692 214.165 C 139.586 218.846,142.002 224.509,144.333 227.388 C 144.605 227.723,151.674 226.631,152.071 226.193 C 155.068 222.887,156.130 208.564,154.070 199.240 L 152.879 193.850 154.054 189.702 C 155.328 185.203,155.319 185.021,153.800 184.642 C 153.238 184.502,152.028 184.011,151.111 183.552 C 149.099 182.543,144.149 181.947,143.887 182.682 M213.117 288.409 C 212.956 289.489,213.374 296.434,214.217 306.650 C 215.273 319.444,215.576 325.031,215.567 331.534 C 215.554 341.008,215.329 340.370,218.682 340.370 C 223.538 340.370,223.693 340.445,228.631 345.169 L 233.148 349.492 237.699 350.926 L 242.249 352.361 244.828 349.801 C 248.749 345.910,248.745 345.899,241.621 341.178 L 235.853 337.357 232.157 329.699 L 228.461 322.041 229.095 304.527 C 229.444 294.894,229.642 286.926,229.536 286.820 C 229.430 286.714,227.949 286.869,226.246 287.165 C 222.996 287.729,215.221 287.617,214.004 286.988 C 213.474 286.714,213.339 286.929,213.117 288.409 M175.931 299.597 C 175.529 301.980,175.632 303.233,177.225 315.444 C 179.162 330.287,179.689 337.100,179.197 340.926 C 178.222 348.503,178.139 353.344,178.954 354.951 C 181.205 359.386,190.999 372.181,192.400 372.517 C 192.928 372.644,204.381 370.187,204.686 369.881 C 205.155 369.413,203.452 365.485,201.243 361.939 C 199.940 359.848,197.029 354.682,194.773 350.458 L 190.671 342.778 190.478 336.111 C 190.116 323.615,191.108 304.445,192.450 298.009 C 192.617 297.206,192.556 297.016,192.202 297.235 C 190.211 298.465,181.224 298.439,176.980 297.190 C 176.478 297.042,176.289 297.475,175.931 299.597 "
            stroke="none" fill="{{human_skin_color}}" fill-rule="evenodd"></path>
        <path id="path1"
            d="M211.481 23.023 C 210.349 23.216,209.583 23.609,209.091 24.250 L 208.368 25.193 207.604 24.236 C 206.266 22.558,200.370 24.539,200.370 26.666 C 200.370 27.690,200.312 27.735,199.475 27.354 C 198.124 26.739,195.417 28.621,195.254 30.289 C 195.166 31.196,194.961 31.481,194.397 31.481 C 193.864 31.481,193.430 31.998,192.847 33.325 C 192.362 34.428,191.797 35.171,191.439 35.176 C 190.355 35.192,188.889 36.656,188.889 37.722 C 188.889 38.273,188.638 39.082,188.332 39.519 C 187.711 40.406,188.011 41.710,189.032 42.558 C 189.396 42.860,189.544 43.361,189.417 43.866 C 189.291 44.368,189.437 44.871,189.794 45.168 C 190.314 45.599,190.277 45.742,189.447 46.511 C 188.936 46.985,188.519 47.785,188.519 48.291 C 188.519 48.884,188.256 49.293,187.778 49.444 C 186.935 49.712,186.934 49.715,187.017 52.950 C 187.082 55.471,187.409 56.174,188.755 56.686 C 189.268 56.881,189.621 57.374,189.696 57.999 C 189.839 59.199,190.366 59.520,192.685 59.819 C 193.884 59.973,194.444 60.219,194.444 60.590 C 194.444 61.307,195.968 61.882,196.574 61.393 C 197.184 60.902,197.158 60.325,196.429 58.095 L 195.821 56.237 198.106 53.931 C 199.363 52.663,201.262 51.163,202.325 50.598 C 203.389 50.033,206.176 48.484,208.519 47.155 C 212.679 44.794,212.877 44.726,217.037 44.189 C 224.138 43.274,224.910 43.481,229.341 47.491 L 231.090 49.074 230.801 51.138 C 230.321 54.568,230.896 54.631,234.425 51.538 L 236.072 50.093 235.404 49.028 C 235.036 48.442,234.243 47.543,233.642 47.029 L 232.549 46.095 234.455 43.203 L 236.362 40.312 235.177 37.441 C 233.865 34.264,233.096 33.563,231.014 33.644 C 229.251 33.713,228.593 32.508,229.171 30.268 C 229.721 28.138,226.035 25.783,224.428 27.238 C 223.721 27.877,223.704 27.858,223.704 26.399 C 223.704 24.622,223.407 24.336,220.741 23.545 L 218.704 22.940 217.872 23.970 C 217.415 24.537,217.040 25.125,217.039 25.278 C 217.035 25.923,216.443 25.478,216.012 24.505 C 215.429 23.189,213.743 22.637,211.481 23.023 "
            stroke="none" fill="{{human_hair_color}}" fill-rule="evenodd"></path>
        <path id="path2"
            d="M218.889 52.615 C 212.516 52.869,211.739 52.979,207.778 54.191 C 205.435 54.907,202.311 55.847,200.835 56.280 C 197.980 57.118,197.037 58.077,197.037 60.146 C 197.037 60.654,196.730 61.287,196.355 61.553 C 195.073 62.463,194.863 63.462,194.924 68.355 C 195.011 75.454,194.778 76.461,193.028 76.560 C 191.677 76.636,180.487 79.390,180.147 79.730 C 179.767 80.110,178.242 86.296,178.529 86.296 C 178.699 86.296,178.947 85.955,179.080 85.537 C 179.223 85.088,180.268 84.310,181.640 83.634 L 183.958 82.491 187.449 84.144 C 191.144 85.894,193.503 87.666,193.922 89.004 C 194.061 89.450,194.537 90.248,194.979 90.777 C 195.621 91.545,195.923 92.799,196.474 96.978 L 197.164 102.217 195.815 106.571 C 193.453 114.198,188.545 117.245,184.185 113.792 C 182.179 112.203,182.214 112.188,180.688 115.278 L 179.362 117.963 182.623 125.840 C 187.193 136.875,188.357 142.450,187.997 151.559 L 187.751 157.747 185.218 163.410 C 183.714 166.771,182.817 169.218,183.010 169.428 C 183.453 169.907,193.218 170.303,205.497 170.340 L 215.624 170.370 221.888 172.430 L 228.152 174.489 232.132 172.102 C 234.320 170.788,236.652 169.599,237.312 169.458 C 238.280 169.251,238.453 169.081,238.199 168.582 C 238.026 168.242,237.497 164.995,237.023 161.368 L 236.161 154.774 237.200 148.961 C 237.772 145.764,238.953 139.956,239.824 136.054 L 241.407 128.960 245.333 123.509 C 247.493 120.511,249.257 117.871,249.254 117.640 C 249.250 117.410,248.702 115.177,248.035 112.677 L 246.823 108.132 237.763 101.648 C 228.940 95.334,228.371 94.995,215.933 88.665 C 203.199 82.185,194.637 77.255,195.024 76.627 C 195.837 75.313,201.026 77.399,208.267 81.951 C 210.741 83.506,217.973 85.170,222.298 85.179 L 225.523 85.185 224.959 83.611 C 224.173 81.417,224.523 79.765,226.662 75.590 C 229.638 69.779,230.943 65.895,231.447 61.351 L 231.893 57.331 229.298 54.777 C 227.870 53.372,226.486 52.249,226.222 52.283 C 225.957 52.316,222.657 52.466,218.889 52.615 M221.761 185.754 L 216.671 188.103 208.058 188.467 C 199.423 188.832,189.260 188.377,184.815 187.426 C 181.953 186.814,182.030 186.757,181.159 190.093 C 179.951 194.717,176.798 218.949,175.545 233.239 C 174.933 240.215,173.761 250.465,172.940 256.017 C 172.119 261.569,171.293 268.444,171.104 271.296 C 170.915 274.148,170.512 277.565,170.208 278.889 C 169.863 280.393,169.652 283.242,169.647 286.481 L 169.638 291.667 172.078 293.808 C 178.478 299.422,186.978 299.891,196.482 295.152 L 201.244 292.778 203.026 288.148 C 204.286 284.874,204.811 282.976,204.817 281.667 C 204.833 278.123,205.167 277.808,206.255 280.314 C 208.847 286.284,216.157 288.747,226.481 287.127 C 230.316 286.525,232.512 285.308,235.452 282.154 C 236.773 280.737,238.137 273.657,237.901 269.444 C 237.767 267.067,237.886 265.421,238.314 263.704 C 239.831 257.617,240.610 213.243,239.444 199.259 C 239.147 195.694,238.901 191.315,238.897 189.527 L 238.889 186.276 236.558 186.514 C 234.296 186.746,234.134 186.703,231.065 185.043 C 227.218 182.963,227.925 182.909,221.761 185.754 "
            stroke="none" fill="{{primary_color}}" fill-rule="evenodd"></path>
        <path id="path3"
            d="M214.968 46.950 C 213.592 47.882,213.727 50.343,215.221 51.574 C 217.703 53.619,220.283 49.879,217.980 47.576 C 217.089 46.685,215.766 46.410,214.968 46.950 M228.699 49.864 C 227.663 50.622,227.731 53.451,228.812 54.532 C 229.882 55.602,230.637 54.921,230.679 52.850 C 230.723 50.631,229.720 49.117,228.699 49.864 "
            stroke="none" fill="{{human_eye_color}}" fill-rule="evenodd"></path>
    </g>
</svg>