<svg id="svg" version="1.1" xmlns="http://www.w3.org/2000/svg" xmlns:xlink="http://www.w3.org/1999/xlink" width="400"
    height="400" viewBox="0, 0, 400,400">
    <g id="svgg">
        <path id="path0"
            d="M208.148 43.803 C 207.969 43.979,204.845 44.381,202.963 44.470 C 202.454 44.495,204.120 45.051,206.667 45.708 C 211.871 47.049,211.669 46.818,210.965 50.648 L 210.676 52.222 213.513 52.222 L 216.350 52.222 216.095 50.185 C 215.812 47.921,215.809 47.924,218.308 48.504 L 219.765 48.841 218.493 47.729 C 214.176 43.952,214.301 44.019,211.216 43.813 C 209.631 43.708,208.250 43.703,208.148 43.803 M197.407 47.102 C 195.269 48.340,192.688 49.790,191.672 50.324 C 189.361 51.541,184.815 55.779,184.815 56.717 C 184.815 58.332,185.643 58.940,186.322 57.824 C 186.868 56.927,187.793 56.554,194.166 54.662 L 201.391 52.517 201.622 50.836 C 201.940 48.514,201.911 44.811,201.574 44.834 C 201.421 44.844,199.546 45.865,197.407 47.102 M169.660 84.997 C 168.244 86.363,166.922 87.380,166.722 87.256 C 164.602 85.946,145.959 118.414,143.168 128.276 C 141.341 134.733,140.813 136.025,138.131 140.614 L 135.815 144.576 134.045 153.121 C 133.071 157.821,132.401 161.796,132.554 161.954 C 132.708 162.112,134.321 162.642,136.139 163.132 C 137.957 163.622,140.725 164.618,142.291 165.345 C 143.856 166.072,145.221 166.667,145.324 166.667 C 145.780 166.667,150.075 152.634,150.781 148.837 C 151.680 144.002,152.291 142.878,155.758 139.686 C 158.263 137.379,169.210 121.394,168.989 120.366 C 168.779 119.390,172.174 115.081,172.896 115.406 C 173.238 115.560,174.602 115.705,175.926 115.728 L 178.333 115.771 180.716 113.644 C 183.385 111.261,185.562 105.860,185.544 101.667 C 185.533 99.089,184.288 90.894,183.818 90.302 C 183.604 90.034,183.237 89.214,183.000 88.480 C 182.401 86.617,181.317 85.730,177.855 84.270 C 172.710 82.100,172.655 82.105,169.660 84.997 M200.204 84.024 C 200.397 84.200,204.056 86.384,208.333 88.878 C 212.611 91.372,218.776 95.254,222.032 97.505 C 230.290 103.212,230.235 103.214,227.058 97.268 C 224.572 92.617,222.975 90.880,218.214 87.651 L 215.133 85.560 211.177 85.409 C 209.002 85.326,205.682 84.908,203.800 84.481 C 199.946 83.606,199.711 83.576,200.204 84.024 M234.915 123.027 C 230.320 129.294,230.487 128.899,230.006 134.630 C 229.767 137.481,229.414 140.859,229.222 142.135 L 228.873 144.455 232.268 150.098 C 234.135 153.201,236.920 157.741,238.456 160.185 C 239.992 162.630,241.275 164.673,241.307 164.725 C 242.134 166.101,251.392 162.781,251.459 161.084 C 251.542 158.969,246.896 148.144,244.222 144.223 L 241.419 140.113 241.236 137.001 C 241.083 134.400,237.487 122.490,236.457 121.175 C 236.405 121.108,235.711 121.941,234.915 123.027 M255.302 174.627 C 254.892 174.914,253.406 175.430,252.000 175.774 C 248.595 176.606,248.590 176.616,250.162 179.428 C 251.187 181.261,251.670 182.727,252.091 185.288 C 252.902 190.218,258.032 202.901,259.609 203.876 C 259.974 204.102,263.498 203.689,264.034 203.358 C 264.257 203.220,264.857 201.715,265.366 200.014 L 266.292 196.921 265.680 192.329 L 265.067 187.737 261.604 183.132 C 259.610 180.481,257.818 177.664,257.380 176.493 C 256.487 174.107,256.293 173.932,255.302 174.627 M128.704 179.697 C 128.605 179.965,128.118 182.019,127.623 184.259 C 127.128 186.500,125.775 191.000,124.617 194.259 L 122.511 200.185 122.962 205.544 C 123.508 212.027,123.366 211.635,126.876 216.359 C 130.356 221.041,129.936 220.779,133.519 220.497 C 138.512 220.104,138.128 220.994,139.994 205.509 L 140.736 199.352 139.623 193.857 L 138.510 188.361 139.475 185.464 C 140.006 183.871,140.355 182.347,140.252 182.077 C 140.081 181.632,135.341 180.373,131.667 179.797 C 130.852 179.669,129.893 179.485,129.535 179.387 C 129.178 179.288,128.804 179.428,128.704 179.697 M198.006 288.796 C 197.828 290.388,198.330 295.079,199.995 307.358 C 202.183 323.499,202.222 323.944,202.222 332.400 L 202.222 341.010 205.784 341.271 C 210.536 341.620,210.501 341.602,215.476 346.389 L 219.815 350.565 224.357 352.026 L 228.900 353.488 231.487 350.920 C 235.448 346.990,235.423 346.918,228.495 342.368 L 222.917 338.704 219.008 330.937 L 215.100 323.170 215.960 305.489 C 216.433 295.764,216.744 287.733,216.651 287.643 C 216.558 287.552,215.148 287.718,213.519 288.013 C 209.525 288.734,201.914 288.370,199.922 287.362 C 199.166 286.980,198.480 286.667,198.396 286.667 C 198.312 286.667,198.137 287.625,198.006 288.796 M166.521 296.825 C 165.698 300.107,165.874 302.098,168.267 316.481 C 171.102 333.527,171.315 335.804,170.585 341.296 C 169.546 349.110,169.693 352.411,171.196 355.037 C 173.658 359.338,177.599 364.424,183.862 371.384 C 183.970 371.504,196.070 368.845,196.270 368.658 C 196.740 368.219,194.779 363.774,192.614 360.373 C 187.510 352.352,182.328 341.948,182.099 339.259 C 181.969 337.733,182.564 329.461,183.724 316.667 C 184.730 305.565,185.554 296.359,185.555 296.209 C 185.555 296.059,184.764 296.246,183.796 296.625 C 179.505 298.302,169.359 298.177,167.359 296.422 C 166.823 295.951,166.729 295.997,166.521 296.825 "
            stroke="none" fill="{{human_skin_color}}" fill-rule="evenodd"></path>
        <path id="path1"
            d="M199.025 23.366 C 198.322 23.570,197.783 24.013,197.658 24.491 C 197.457 25.260,197.432 25.255,196.592 24.279 C 194.995 22.422,189.268 24.507,189.247 26.952 C 189.237 28.180,189.181 28.261,188.744 27.685 C 187.758 26.387,184.074 28.499,184.074 30.362 C 184.074 31.231,183.910 31.481,183.340 31.481 C 182.843 31.481,182.334 32.019,181.759 33.149 C 181.232 34.187,180.427 35.076,179.625 35.506 C 177.341 36.731,176.284 40.818,177.826 42.459 C 178.313 42.977,178.521 43.535,178.371 43.924 C 178.235 44.279,178.380 44.828,178.707 45.188 C 179.234 45.771,179.203 45.878,178.345 46.440 C 177.742 46.835,177.407 47.396,177.407 48.011 C 177.407 48.572,177.050 49.249,176.543 49.647 C 174.904 50.937,175.687 55.942,177.644 56.686 C 178.157 56.881,178.510 57.374,178.585 57.999 C 178.727 59.199,179.255 59.520,181.574 59.819 C 182.946 59.996,183.333 60.194,183.333 60.720 C 183.333 61.142,183.673 61.460,184.240 61.568 C 185.903 61.886,186.425 60.411,185.368 58.384 C 185.064 57.800,184.815 57.029,184.815 56.669 C 184.815 55.770,189.417 51.512,191.672 50.324 C 192.688 49.789,195.185 48.396,197.222 47.228 C 202.380 44.272,204.077 43.862,210.962 43.910 C 214.244 43.933,214.017 43.825,217.867 47.187 L 219.947 49.003 219.737 51.517 C 219.479 54.589,219.879 54.633,222.973 51.876 L 224.966 50.101 224.295 49.032 C 223.926 48.444,223.132 47.542,222.530 47.028 L 221.435 46.092 223.322 43.201 L 225.210 40.310 224.033 37.362 C 222.731 34.099,222.283 33.704,219.885 33.704 C 218.009 33.704,217.644 33.003,218.029 30.133 C 218.322 27.952,214.863 25.838,213.307 27.246 C 212.611 27.875,212.593 27.848,212.593 26.226 L 212.593 24.560 210.017 23.683 C 208.600 23.201,207.392 22.883,207.331 22.977 C 207.271 23.071,206.944 23.644,206.603 24.250 C 205.770 25.733,205.371 25.788,204.835 24.494 C 204.209 22.981,201.900 22.533,199.025 23.366 "
            stroke="none" fill="{{human_hair_color}}" fill-rule="evenodd"></path>
        <path id="path2"
            d="M203.333 52.577 C 201.084 52.740,198.298 53.374,193.578 54.799 C 186.425 56.958,185.685 57.430,185.860 59.723 C 185.948 60.871,185.330 61.985,184.791 61.652 C 183.938 61.125,183.541 63.363,183.507 68.889 C 183.459 76.704,183.540 76.507,180.251 76.795 C 178.789 76.922,175.597 77.572,173.157 78.239 L 168.722 79.452 167.670 83.282 C 166.363 88.038,166.440 88.106,169.635 85.021 C 172.659 82.102,172.704 82.097,177.855 84.270 C 181.317 85.730,182.401 86.617,183.000 88.480 C 183.237 89.214,183.604 90.034,183.818 90.302 C 184.288 90.894,185.533 99.089,185.544 101.667 C 185.581 110.259,178.457 118.246,173.217 115.487 C 172.369 115.041,172.013 115.333,170.208 117.954 L 168.792 120.009 171.632 126.804 C 175.707 136.555,176.762 142.193,176.220 151.300 L 175.847 157.562 171.442 163.355 C 166.716 169.570,166.603 169.785,167.870 170.160 C 169.677 170.694,183.999 171.172,192.593 170.984 L 201.667 170.786 209.674 172.844 L 217.681 174.901 221.767 172.490 C 224.717 170.750,226.378 170.007,227.741 169.820 C 229.450 169.585,230.311 168.828,229.290 168.457 C 229.103 168.389,228.651 165.038,228.286 161.009 L 227.622 153.685 228.625 146.380 C 229.177 142.362,229.828 136.845,230.072 134.121 L 230.515 129.167 234.255 123.935 C 236.312 121.058,238.122 118.495,238.279 118.239 C 238.654 117.629,235.991 108.141,235.224 107.352 C 232.984 105.048,214.751 94.005,204.051 88.471 C 193.081 82.799,184.143 77.462,184.692 76.913 C 185.373 76.232,190.930 78.621,197.018 82.211 C 199.490 83.668,205.753 85.138,210.805 85.446 C 214.897 85.695,214.862 85.722,213.908 83.018 C 213.257 81.173,213.675 79.682,216.146 75.027 C 218.776 70.073,220.030 66.238,220.574 61.481 L 221.062 57.222 218.596 54.722 L 216.131 52.222 211.306 52.286 C 208.653 52.321,205.065 52.452,203.333 52.577 M210.128 185.538 L 203.404 188.080 193.968 188.508 C 183.599 188.978,174.751 188.623,169.520 187.527 C 166.167 186.825,166.334 186.718,165.066 190.370 C 162.552 197.611,161.999 208.415,161.323 263.519 C 161.209 272.806,161.030 276.452,160.576 278.704 C 159.741 282.844,160.644 290.306,162.182 291.974 C 168.620 298.957,177.103 299.947,187.475 294.927 C 192.928 292.287,192.636 292.608,193.907 287.858 L 194.927 284.050 195.704 284.752 C 201.430 289.926,213.846 289.897,220.702 284.695 L 224.211 282.033 225.409 277.590 C 226.468 273.662,226.583 272.779,226.400 269.954 C 226.211 267.043,226.292 266.484,227.312 263.658 C 230.869 253.795,233.505 226.767,232.382 211.667 C 231.137 194.935,230.124 186.321,229.368 186.030 C 229.083 185.921,227.900 186.023,226.740 186.257 L 224.630 186.681 220.803 184.822 C 218.698 183.800,216.948 182.970,216.914 182.980 C 216.880 182.989,213.826 184.140,210.128 185.538 "
            stroke="none" fill="{{primary_color}}" fill-rule="evenodd"></path>
        <path id="path3"
            d="M203.581 47.685 C 202.998 48.846,203.289 50.410,204.295 51.521 C 205.692 53.065,207.926 51.787,207.926 49.444 C 207.926 46.807,204.682 45.494,203.581 47.685 M217.393 50.594 C 216.905 51.877,217.236 53.434,218.178 54.286 C 219.254 55.260,219.688 54.539,219.557 51.998 C 219.424 49.421,218.152 48.596,217.393 50.594 "
            stroke="none" fill="{{human_eye_color}}" fill-rule="evenodd"></path>
    </g>
</svg>