<svg id="svg" version="1.1" xmlns="http://www.w3.org/2000/svg" xmlns:xlink="http://www.w3.org/1999/xlink" width="400"
    height="400" viewBox="0, 0, 400,400">
    <g id="svgg">
        <path id="path0"
            d="M208.148 43.953 C 207.028 44.015,205.194 44.176,204.074 44.310 L 202.037 44.554 206.667 45.728 C 211.872 47.047,211.670 46.816,210.965 50.648 L 210.676 52.222 213.513 52.222 L 216.350 52.222 216.089 50.135 L 215.828 48.047 217.266 48.303 C 218.057 48.443,219.037 48.647,219.444 48.755 C 220.151 48.943,219.804 48.593,216.111 45.397 C 214.864 44.317,212.958 43.675,211.296 43.774 C 210.685 43.811,209.269 43.891,208.148 43.953 M197.963 46.851 C 195.926 48.165,193.926 49.401,193.519 49.597 C 191.562 50.540,189.467 52.286,188.724 53.595 C 187.673 55.445,187.303 56.786,187.908 56.554 C 188.153 56.460,191.296 55.511,194.893 54.445 L 201.432 52.507 201.670 50.235 C 201.802 48.985,201.855 47.175,201.788 46.212 L 201.667 44.461 197.963 46.851 M169.660 84.997 C 168.244 86.363,166.922 87.380,166.722 87.256 C 164.602 85.946,145.959 118.414,143.168 128.276 C 141.341 134.733,140.813 136.025,138.131 140.614 L 135.815 144.576 134.045 153.121 C 133.071 157.821,132.401 161.796,132.554 161.954 C 132.708 162.112,134.321 162.642,136.139 163.132 C 137.957 163.622,140.725 164.618,142.291 165.345 C 143.856 166.072,145.221 166.667,145.324 166.667 C 145.780 166.667,150.075 152.634,150.781 148.837 C 151.680 144.002,152.291 142.878,155.758 139.686 C 158.263 137.379,169.210 121.394,168.989 120.366 C 168.779 119.390,172.174 115.081,172.896 115.406 C 173.238 115.560,174.602 115.705,175.926 115.728 L 178.333 115.771 180.716 113.644 C 183.385 111.261,185.562 105.860,185.544 101.667 C 185.533 99.089,184.288 90.894,183.818 90.302 C 183.604 90.034,183.237 89.214,183.000 88.480 C 182.401 86.617,181.317 85.730,177.855 84.270 C 172.710 82.100,172.655 82.105,169.660 84.997 M200.204 84.024 C 200.397 84.200,204.056 86.384,208.333 88.878 C 212.611 91.372,218.776 95.254,222.032 97.505 C 230.290 103.212,230.235 103.214,227.058 97.268 C 224.572 92.617,222.975 90.880,218.214 87.651 L 215.133 85.560 211.177 85.409 C 209.002 85.326,205.682 84.908,203.800 84.481 C 199.946 83.606,199.711 83.576,200.204 84.024 M234.915 123.027 C 230.320 129.294,230.487 128.899,230.006 134.630 C 229.767 137.481,229.414 140.859,229.222 142.135 L 228.873 144.455 232.268 150.098 C 234.135 153.201,236.920 157.741,238.456 160.185 C 239.992 162.630,241.275 164.673,241.307 164.725 C 242.134 166.101,251.392 162.781,251.459 161.084 C 251.542 158.969,246.896 148.144,244.222 144.223 L 241.419 140.113 241.236 137.001 C 241.083 134.400,237.487 122.490,236.457 121.175 C 236.405 121.108,235.711 121.941,234.915 123.027 M255.302 174.627 C 254.892 174.914,253.406 175.430,252.000 175.774 C 248.595 176.606,248.590 176.616,250.162 179.428 C 251.187 181.261,251.670 182.727,252.091 185.288 C 252.902 190.218,258.032 202.901,259.609 203.876 C 259.974 204.102,263.498 203.689,264.034 203.358 C 264.257 203.220,264.857 201.715,265.366 200.014 L 266.292 196.921 265.680 192.329 L 265.067 187.737 261.604 183.132 C 259.610 180.481,257.818 177.664,257.380 176.493 C 256.487 174.107,256.293 173.932,255.302 174.627 M128.704 179.697 C 128.605 179.965,128.118 182.019,127.623 184.259 C 127.128 186.500,125.775 191.000,124.617 194.259 L 122.511 200.185 122.962 205.544 C 123.508 212.027,123.366 211.635,126.876 216.359 C 130.356 221.041,129.936 220.779,133.519 220.497 C 138.512 220.104,138.128 220.994,139.994 205.509 L 140.736 199.352 139.623 193.857 L 138.510 188.361 139.475 185.464 C 140.006 183.871,140.355 182.347,140.252 182.077 C 140.081 181.632,135.341 180.373,131.667 179.797 C 130.852 179.669,129.893 179.485,129.535 179.387 C 129.178 179.288,128.804 179.428,128.704 179.697 M198.006 288.796 C 197.828 290.388,198.330 295.079,199.995 307.358 C 202.183 323.499,202.222 323.944,202.222 332.400 L 202.222 341.010 205.784 341.271 C 210.536 341.620,210.501 341.602,215.476 346.389 L 219.815 350.565 224.357 352.026 L 228.900 353.488 231.487 350.920 C 235.448 346.990,235.423 346.918,228.495 342.368 L 222.917 338.704 219.008 330.937 L 215.100 323.170 215.960 305.489 C 216.433 295.764,216.744 287.733,216.651 287.643 C 216.558 287.552,215.148 287.718,213.519 288.013 C 209.525 288.734,201.914 288.370,199.922 287.362 C 199.166 286.980,198.480 286.667,198.396 286.667 C 198.312 286.667,198.137 287.625,198.006 288.796 M166.521 296.825 C 165.698 300.107,165.874 302.098,168.267 316.481 C 171.102 333.527,171.315 335.804,170.585 341.296 C 169.546 349.110,169.693 352.411,171.196 355.037 C 173.658 359.338,177.599 364.424,183.862 371.384 C 183.970 371.504,196.070 368.845,196.270 368.658 C 196.740 368.219,194.779 363.774,192.614 360.373 C 187.510 352.352,182.328 341.948,182.099 339.259 C 181.969 337.733,182.564 329.461,183.724 316.667 C 184.730 305.565,185.554 296.359,185.555 296.209 C 185.555 296.059,184.764 296.246,183.796 296.625 C 179.505 298.302,169.359 298.177,167.359 296.422 C 166.823 295.951,166.729 295.997,166.521 296.825 "
            stroke="none" fill="{{human_skin_color}}" fill-rule="evenodd"></path>
        <path id="path1"
            d="M194.554 27.992 C 191.390 32.532,190.448 33.573,188.704 34.459 C 187.122 35.263,186.656 35.770,185.508 37.942 C 184.769 39.340,183.478 41.137,182.638 41.936 L 181.111 43.389 181.111 47.205 C 181.111 49.627,181.300 51.477,181.628 52.270 C 181.912 52.956,182.336 54.762,182.569 56.282 C 183.003 59.103,184.392 61.684,185.312 61.378 C 185.548 61.299,186.212 59.915,186.788 58.302 C 188.779 52.731,189.347 52.008,193.755 49.444 C 194.106 49.241,196.043 48.034,198.061 46.764 L 201.729 44.453 207.017 44.075 C 212.901 43.655,214.340 43.863,216.111 45.390 C 216.722 45.917,217.643 46.711,218.158 47.155 C 219.973 48.723,220.342 48.950,220.702 48.728 C 220.927 48.589,220.785 47.692,220.332 46.381 C 219.752 44.705,219.650 43.765,219.846 41.906 C 220.214 38.422,218.242 34.704,215.115 32.985 C 213.920 32.328,212.251 30.951,211.300 29.838 C 209.650 27.907,209.577 27.868,208.231 28.181 C 205.971 28.705,203.969 28.566,202.813 27.804 C 201.870 27.183,201.640 27.159,200.951 27.610 C 200.279 28.051,199.874 28.047,198.138 27.585 C 195.449 26.870,195.327 26.883,194.554 27.992 "
            stroke="none" fill="{{human_hair_color}}" fill-rule="evenodd"></path>
        <path id="path2"
            d="M203.333 52.578 C 200.533 52.781,189.671 55.639,187.805 56.664 C 187.515 56.823,186.931 57.931,186.508 59.125 C 186.033 60.462,185.525 61.296,185.184 61.296 C 183.911 61.296,183.546 62.954,183.508 68.889 C 183.458 76.704,183.539 76.507,180.251 76.795 C 178.789 76.922,175.597 77.572,173.157 78.239 L 168.722 79.452 167.670 83.282 C 166.363 88.038,166.440 88.106,169.635 85.021 C 172.659 82.102,172.704 82.097,177.855 84.270 C 181.317 85.730,182.401 86.617,183.000 88.480 C 183.237 89.214,183.604 90.034,183.818 90.302 C 184.288 90.894,185.533 99.089,185.544 101.667 C 185.581 110.259,178.457 118.246,173.217 115.487 C 172.369 115.041,172.013 115.333,170.208 117.954 L 168.792 120.009 171.632 126.804 C 175.707 136.555,176.762 142.193,176.220 151.300 L 175.847 157.562 171.442 163.355 C 166.716 169.570,166.603 169.785,167.870 170.160 C 169.677 170.694,183.999 171.172,192.593 170.984 L 201.667 170.786 209.674 172.844 L 217.681 174.901 221.767 172.490 C 224.717 170.750,226.378 170.007,227.741 169.820 C 229.450 169.585,230.311 168.828,229.290 168.457 C 229.103 168.389,228.651 165.038,228.286 161.009 L 227.622 153.685 228.625 146.380 C 229.177 142.362,229.828 136.845,230.072 134.121 L 230.515 129.167 234.255 123.935 C 236.312 121.058,238.122 118.495,238.279 118.239 C 238.654 117.629,235.991 108.141,235.224 107.352 C 232.984 105.048,214.751 94.005,204.051 88.471 C 193.081 82.799,184.143 77.462,184.692 76.913 C 185.373 76.232,190.930 78.621,197.018 82.211 C 199.490 83.668,205.753 85.138,210.805 85.446 C 214.897 85.695,214.862 85.722,213.908 83.018 C 213.257 81.173,213.675 79.682,216.146 75.027 C 218.776 70.073,220.030 66.238,220.574 61.481 L 221.062 57.222 218.596 54.722 L 216.131 52.222 211.306 52.286 C 208.653 52.321,205.065 52.453,203.333 52.578 M210.128 185.538 L 203.404 188.080 193.968 188.508 C 183.599 188.978,174.751 188.623,169.520 187.527 C 166.167 186.825,166.334 186.718,165.066 190.370 C 162.552 197.611,161.999 208.415,161.323 263.519 C 161.209 272.806,161.030 276.452,160.576 278.704 C 159.741 282.844,160.644 290.306,162.182 291.974 C 168.620 298.957,177.103 299.947,187.475 294.927 C 192.928 292.287,192.636 292.608,193.907 287.858 L 194.927 284.050 195.704 284.752 C 201.430 289.926,213.846 289.897,220.702 284.695 L 224.211 282.033 225.409 277.590 C 226.468 273.662,226.583 272.779,226.400 269.954 C 226.211 267.043,226.292 266.484,227.312 263.658 C 230.869 253.795,233.505 226.767,232.382 211.667 C 231.137 194.935,230.124 186.321,229.368 186.030 C 229.083 185.921,227.900 186.023,226.740 186.257 L 224.630 186.681 220.803 184.822 C 218.698 183.800,216.948 182.970,216.914 182.980 C 216.880 182.989,213.826 184.140,210.128 185.538 "
            stroke="none" fill="{{primary_color}}" fill-rule="evenodd"></path>
        <path id="path3"
            d="M203.581 47.685 C 202.998 48.846,203.289 50.410,204.295 51.521 C 205.692 53.065,207.926 51.787,207.926 49.444 C 207.926 46.807,204.682 45.494,203.581 47.685 M217.383 50.620 C 216.587 52.713,218.359 55.806,219.478 54.276 C 220.090 53.439,220.163 51.368,219.617 50.346 C 219.053 49.293,217.830 49.443,217.383 50.620 "
            stroke="none" fill="{{human_eye_color}}" fill-rule="evenodd"></path>
    </g>
</svg>