<svg id="svg" version="1.1" xmlns="http://www.w3.org/2000/svg" xmlns:xlink="http://www.w3.org/1999/xlink" width="400"
    height="400" viewBox="0, 0, 400,400">
    <g id="svgg">
        <path id="path0"
            d="M193.275 33.157 C 190.856 34.728,190.145 35.709,190.317 37.235 C 190.449 38.401,186.402 44.125,185.556 43.970 C 183.382 43.570,182.390 53.076,184.111 57.799 C 185.003 60.245,185.022 60.246,186.329 57.879 C 186.865 56.909,187.567 56.621,194.155 54.665 L 201.391 52.517 201.622 50.836 C 201.748 49.912,201.852 48.115,201.852 46.844 L 201.852 44.531 206.574 45.719 C 211.885 47.055,211.670 46.814,210.965 50.648 L 210.676 52.222 213.513 52.222 L 216.350 52.222 216.089 50.135 L 215.828 48.047 217.266 48.314 C 218.057 48.461,219.188 48.676,219.781 48.793 C 220.706 48.975,220.831 48.906,220.669 48.299 C 220.473 47.562,214.074 37.099,214.074 37.515 C 214.074 37.645,214.306 38.466,214.590 39.339 C 216.905 46.465,213.323 46.397,209.550 39.243 C 208.320 36.909,207.266 34.945,207.208 34.879 C 207.086 34.738,198.005 32.253,197.092 32.111 C 196.756 32.058,196.315 31.912,196.111 31.786 C 195.907 31.659,194.631 32.276,193.275 33.157 M169.660 84.997 C 168.244 86.363,166.922 87.380,166.722 87.256 C 164.602 85.946,145.959 118.414,143.168 128.276 C 141.341 134.733,140.813 136.025,138.131 140.614 L 135.815 144.576 134.045 153.121 C 133.071 157.821,132.401 161.796,132.554 161.954 C 132.708 162.112,134.321 162.642,136.139 163.132 C 137.957 163.622,140.725 164.618,142.291 165.345 C 143.856 166.072,145.221 166.667,145.324 166.667 C 145.780 166.667,150.075 152.634,150.781 148.837 C 151.680 144.002,152.291 142.878,155.758 139.686 C 158.263 137.379,169.210 121.394,168.989 120.366 C 168.779 119.390,172.174 115.081,172.896 115.406 C 173.238 115.560,174.602 115.705,175.926 115.728 L 178.333 115.771 180.716 113.644 C 183.385 111.261,185.562 105.860,185.544 101.667 C 185.533 99.089,184.288 90.894,183.818 90.302 C 183.604 90.034,183.237 89.214,183.000 88.480 C 182.401 86.617,181.317 85.730,177.855 84.270 C 172.710 82.100,172.655 82.105,169.660 84.997 M200.204 84.024 C 200.397 84.200,204.056 86.384,208.333 88.878 C 212.611 91.372,218.776 95.254,222.032 97.505 C 230.290 103.212,230.235 103.214,227.058 97.268 C 224.572 92.617,222.975 90.880,218.214 87.651 L 215.133 85.560 211.177 85.409 C 209.002 85.326,205.682 84.908,203.800 84.481 C 199.946 83.606,199.711 83.576,200.204 84.024 M234.915 123.027 C 230.320 129.294,230.487 128.899,230.006 134.630 C 229.767 137.481,229.414 140.859,229.222 142.135 L 228.873 144.455 232.268 150.098 C 234.135 153.201,236.920 157.741,238.456 160.185 C 239.992 162.630,241.275 164.673,241.307 164.725 C 242.134 166.101,251.392 162.781,251.459 161.084 C 251.542 158.969,246.896 148.144,244.222 144.223 L 241.419 140.113 241.236 137.001 C 241.083 134.400,237.487 122.490,236.457 121.175 C 236.405 121.108,235.711 121.941,234.915 123.027 M255.302 174.627 C 254.892 174.914,253.406 175.430,252.000 175.774 C 248.595 176.606,248.590 176.616,250.162 179.428 C 251.187 181.261,251.670 182.727,252.091 185.288 C 252.902 190.218,258.032 202.901,259.609 203.876 C 259.974 204.102,263.498 203.689,264.034 203.358 C 264.257 203.220,264.857 201.715,265.366 200.014 L 266.292 196.921 265.680 192.329 L 265.067 187.737 261.604 183.132 C 259.610 180.481,257.818 177.664,257.380 176.493 C 256.487 174.107,256.293 173.932,255.302 174.627 M128.704 179.697 C 128.605 179.965,128.118 182.019,127.623 184.259 C 127.128 186.500,125.775 191.000,124.617 194.259 L 122.511 200.185 122.962 205.544 C 123.508 212.027,123.366 211.635,126.876 216.359 C 130.356 221.041,129.936 220.779,133.519 220.497 C 138.512 220.104,138.128 220.994,139.994 205.509 L 140.736 199.352 139.623 193.857 L 138.510 188.361 139.475 185.464 C 140.006 183.871,140.355 182.347,140.252 182.077 C 140.081 181.632,135.341 180.373,131.667 179.797 C 130.852 179.669,129.893 179.485,129.535 179.387 C 129.178 179.288,128.804 179.428,128.704 179.697 M198.006 288.796 C 197.828 290.388,198.330 295.079,199.995 307.358 C 202.183 323.499,202.222 323.944,202.222 332.400 L 202.222 341.010 205.784 341.271 C 210.536 341.620,210.501 341.602,215.476 346.389 L 219.815 350.565 224.357 352.026 L 228.900 353.488 231.487 350.920 C 235.448 346.990,235.423 346.918,228.495 342.368 L 222.917 338.704 219.008 330.937 L 215.100 323.170 215.960 305.489 C 216.433 295.764,216.744 287.733,216.651 287.643 C 216.558 287.552,215.148 287.718,213.519 288.013 C 209.525 288.734,201.914 288.370,199.922 287.362 C 199.166 286.980,198.480 286.667,198.396 286.667 C 198.312 286.667,198.137 287.625,198.006 288.796 M166.521 296.825 C 165.698 300.107,165.874 302.098,168.267 316.481 C 171.102 333.527,171.315 335.804,170.585 341.296 C 169.546 349.110,169.693 352.411,171.196 355.037 C 173.658 359.338,177.599 364.424,183.862 371.384 C 183.970 371.504,196.070 368.845,196.270 368.658 C 196.740 368.219,194.779 363.774,192.614 360.373 C 187.510 352.352,182.328 341.948,182.099 339.259 C 181.969 337.733,182.564 329.461,183.724 316.667 C 184.730 305.565,185.554 296.359,185.555 296.209 C 185.555 296.059,184.764 296.246,183.796 296.625 C 179.505 298.302,169.359 298.177,167.359 296.422 C 166.823 295.951,166.729 295.997,166.521 296.825 "
            stroke="none" fill="{{human_skin_color}}" fill-rule="evenodd"></path>
        <path id="path1"
            d="M203.148 52.609 C 200.733 52.802,198.030 53.423,193.333 54.864 L 186.852 56.852 185.197 60.000 L 183.541 63.148 183.506 68.889 C 183.459 76.704,183.540 76.507,180.251 76.795 C 178.789 76.922,175.597 77.572,173.157 78.239 L 168.722 79.452 167.670 83.282 C 166.363 88.038,166.440 88.106,169.635 85.021 C 172.659 82.102,172.704 82.097,177.855 84.270 C 181.317 85.730,182.401 86.617,183.000 88.480 C 183.237 89.214,183.604 90.034,183.818 90.302 C 184.288 90.894,185.533 99.089,185.544 101.667 C 185.581 110.259,178.457 118.246,173.217 115.487 C 172.369 115.041,172.013 115.333,170.208 117.954 L 168.792 120.009 171.632 126.804 C 175.707 136.555,176.762 142.193,176.220 151.300 L 175.847 157.562 171.442 163.355 C 166.716 169.570,166.603 169.785,167.870 170.160 C 169.677 170.694,183.999 171.172,192.593 170.984 L 201.667 170.786 209.674 172.844 L 217.681 174.901 221.767 172.490 C 224.717 170.750,226.378 170.007,227.741 169.820 C 229.450 169.585,230.311 168.828,229.290 168.457 C 229.103 168.389,228.651 165.038,228.286 161.009 L 227.622 153.685 228.625 146.380 C 229.177 142.362,229.828 136.845,230.072 134.121 L 230.515 129.167 234.255 123.935 C 236.312 121.058,238.122 118.495,238.279 118.239 C 238.654 117.629,235.991 108.141,235.224 107.352 C 232.984 105.048,214.751 94.005,204.051 88.471 C 193.081 82.799,184.143 77.462,184.692 76.913 C 185.373 76.232,190.930 78.621,197.018 82.211 C 199.490 83.668,205.753 85.138,210.805 85.446 C 214.897 85.695,214.862 85.722,213.908 83.018 C 213.257 81.173,213.675 79.682,216.146 75.027 C 218.776 70.073,220.030 66.238,220.574 61.481 L 221.062 57.222 218.596 54.722 L 216.131 52.222 211.306 52.282 C 208.653 52.315,204.981 52.462,203.148 52.609 M210.128 185.538 L 203.404 188.080 193.968 188.508 C 183.599 188.978,174.751 188.623,169.520 187.527 C 166.167 186.825,166.334 186.718,165.066 190.370 C 162.552 197.611,161.999 208.415,161.323 263.519 C 161.209 272.806,161.030 276.452,160.576 278.704 C 159.741 282.844,160.644 290.306,162.182 291.974 C 168.620 298.957,177.103 299.947,187.475 294.927 C 192.928 292.287,192.636 292.608,193.907 287.858 L 194.927 284.050 195.704 284.752 C 201.430 289.926,213.846 289.897,220.702 284.695 L 224.211 282.033 225.409 277.590 C 226.468 273.662,226.583 272.779,226.400 269.954 C 226.211 267.043,226.292 266.484,227.312 263.658 C 230.869 253.795,233.505 226.767,232.382 211.667 C 231.137 194.935,230.124 186.321,229.368 186.030 C 229.083 185.921,227.900 186.023,226.740 186.257 L 224.630 186.681 220.803 184.822 C 218.698 183.800,216.948 182.970,216.914 182.980 C 216.880 182.989,213.826 184.140,210.128 185.538 "
            stroke="none" fill="{{primary_color}}" fill-rule="evenodd"></path>
        <path id="path2"
            d="M196.667 30.926 C 196.188 31.435,195.868 31.864,195.954 31.879 C 197.198 32.097,198.423 32.402,202.403 33.482 C 204.988 34.183,207.150 34.812,207.208 34.879 C 207.266 34.945,208.320 36.909,209.550 39.243 C 212.410 44.665,215.795 46.599,215.295 42.524 C 214.581 36.701,212.255 32.348,209.582 31.829 C 208.691 31.657,206.391 31.175,204.471 30.758 C 199.637 29.709,197.772 29.749,196.667 30.926 M183.206 36.389 C 181.661 38.216,181.952 40.557,183.975 42.581 C 185.811 44.416,185.852 44.416,187.222 42.525 C 191.003 37.308,191.060 37.066,188.772 35.959 C 186.320 34.772,184.450 34.917,183.206 36.389 "
            stroke="none" fill="{{human_hair_color}}" fill-rule="evenodd"></path>
        <path id="path3"
            d="M203.581 47.685 C 202.998 48.846,203.289 50.410,204.295 51.521 C 205.692 53.065,207.926 51.787,207.926 49.444 C 207.926 46.807,204.682 45.494,203.581 47.685 M217.383 50.620 C 216.587 52.713,218.359 55.806,219.478 54.276 C 220.090 53.439,220.163 51.368,219.617 50.346 C 219.053 49.293,217.830 49.443,217.383 50.620 "
            stroke="none" fill="{{human_eye_color}}" fill-rule="evenodd"></path>
    </g>
</svg>