<svg id="svg" version="1.1" xmlns="http://www.w3.org/2000/svg" xmlns:xlink="http://www.w3.org/1999/xlink" width="400"
    height="400" viewBox="0, 0, 400,400">
    <g id="svgg">
        <path id="path0"
            d="M194.015 33.158 C 191.646 34.696,190.862 35.744,191.060 37.110 C 191.172 37.881,190.116 40.000,189.620 40.000 C 189.422 40.000,189.259 40.174,189.259 40.386 C 189.259 41.139,186.843 44.056,186.296 43.963 C 184.121 43.590,183.130 53.077,184.852 57.799 C 185.744 60.245,185.762 60.246,187.070 57.879 C 187.606 56.909,188.307 56.621,194.895 54.665 L 202.132 52.517 202.362 50.836 C 202.489 49.912,202.593 48.115,202.593 46.844 L 202.593 44.531 207.315 45.719 C 212.626 47.055,212.411 46.814,211.706 50.648 L 211.416 52.222 214.253 52.222 L 217.090 52.222 216.830 50.135 L 216.569 48.047 218.007 48.296 C 218.797 48.432,219.927 48.640,220.517 48.758 C 221.431 48.940,221.562 48.870,221.406 48.282 C 221.215 47.569,214.815 37.102,214.815 37.504 C 214.815 37.628,214.987 38.184,215.198 38.738 C 215.874 40.515,216.233 44.122,215.753 44.306 C 214.057 44.957,212.553 43.565,210.300 39.259 C 209.074 36.917,207.888 34.886,207.664 34.747 C 207.082 34.384,197.659 32.045,197.256 32.163 C 197.071 32.217,196.821 32.103,196.701 31.909 C 196.580 31.716,195.372 32.278,194.015 33.158 M164.666 85.732 C 163.738 86.440,162.767 86.939,162.508 86.841 C 162.249 86.742,160.620 87.893,158.889 89.399 L 155.741 92.138 151.950 100.421 C 149.865 104.976,146.825 112.084,145.194 116.216 L 142.228 123.728 141.291 131.374 C 139.954 142.279,138.746 146.024,134.521 152.348 L 132.007 156.111 131.556 159.966 C 131.017 164.578,130.404 163.892,136.566 165.572 C 139.371 166.337,143.300 167.563,145.296 168.296 C 147.292 169.030,149.086 169.630,149.282 169.630 C 150.133 169.630,151.374 165.506,152.180 160.000 C 153.378 151.813,153.973 150.537,158.583 146.273 C 161.710 143.381,162.485 142.422,163.770 139.862 C 164.600 138.207,166.417 134.758,167.807 132.199 C 169.198 129.640,170.310 127.215,170.279 126.808 C 170.149 125.085,175.166 117.476,176.858 116.830 C 179.645 115.765,181.015 113.945,182.273 109.638 L 183.380 105.845 182.979 100.435 C 182.619 95.592,182.487 94.926,181.715 94.086 C 181.241 93.570,180.051 92.007,179.072 90.612 C 177.130 87.847,174.431 86.244,169.613 84.996 C 166.719 84.246,166.588 84.265,164.666 85.732 M215.185 85.219 C 215.185 85.524,214.270 85.600,212.018 85.482 L 208.851 85.316 213.777 86.910 C 219.889 88.888,220.987 88.804,218.056 86.583 C 216.224 85.195,215.185 84.701,215.185 85.219 M239.734 125.104 C 238.671 127.015,236.923 131.211,235.596 135.040 L 233.298 141.667 233.223 149.260 L 233.148 156.852 235.701 162.037 C 237.105 164.889,238.313 167.291,238.385 167.375 C 239.562 168.750,251.708 165.104,252.458 163.150 C 252.903 161.989,251.074 157.684,247.968 152.584 L 244.702 147.222 245.129 141.509 L 245.555 135.796 243.836 129.102 C 241.725 120.882,241.958 121.109,239.734 125.104 M255.370 178.900 C 254.556 179.280,252.722 179.792,251.296 180.037 C 247.790 180.640,247.807 180.570,250.286 184.346 C 252.359 187.503,252.498 187.860,252.939 191.154 C 253.704 196.868,255.986 203.297,258.610 207.136 L 260.831 210.384 262.730 210.142 C 265.621 209.775,265.765 209.625,266.277 206.454 C 267.494 198.907,266.514 194.548,262.245 188.519 C 259.826 185.101,259.045 183.655,258.296 181.204 C 257.783 179.523,257.248 178.162,257.107 178.178 C 256.967 178.195,256.185 178.519,255.370 178.900 M128.351 185.648 C 128.240 186.310,127.907 188.790,127.609 191.160 C 127.243 194.079,126.393 197.721,124.974 202.456 L 122.879 209.444 123.873 215.185 C 125.081 222.158,128.393 229.245,130.448 229.255 C 132.379 229.263,137.022 228.427,137.349 228.012 C 140.372 224.169,141.595 209.989,139.696 200.778 L 138.597 195.444 140.224 191.635 C 142.318 186.734,142.335 186.862,139.537 186.367 C 138.264 186.142,135.639 185.620,133.704 185.206 C 128.842 184.167,128.595 184.188,128.351 185.648 M219.189 286.861 C 217.657 288.392,202.300 289.013,200.187 287.628 C 199.006 286.854,198.921 286.915,198.487 288.845 C 198.215 290.055,198.648 293.322,200.759 306.003 L 203.367 321.667 203.593 331.389 C 203.739 337.707,203.953 341.111,204.202 341.111 C 204.413 341.111,206.452 341.300,208.732 341.531 L 212.877 341.952 218.382 346.865 L 223.887 351.778 229.258 353.496 L 234.629 355.214 237.685 352.103 C 242.067 347.642,242.221 348.017,233.917 342.920 L 227.093 338.733 222.748 330.940 L 218.402 323.148 219.213 306.481 C 220.212 285.957,220.212 285.837,219.189 286.861 M184.074 296.721 C 179.759 298.644,167.727 299.056,165.673 297.351 C 165.005 296.797,164.985 296.836,164.535 299.630 C 164.165 301.925,164.276 302.665,166.914 315.556 C 170.189 331.561,170.816 336.495,170.132 340.874 C 169.874 342.532,169.548 345.974,169.408 348.523 L 169.153 353.157 170.388 355.375 C 173.565 361.084,184.549 374.815,185.939 374.815 C 186.739 374.815,199.624 371.981,199.850 371.755 C 200.305 371.300,198.171 366.945,195.544 362.969 C 193.946 360.550,190.606 355.137,188.121 350.940 C 182.295 341.100,182.560 343.390,184.450 319.259 C 185.977 299.760,186.221 295.908,185.926 295.951 C 185.824 295.966,184.991 296.312,184.074 296.721 "
            stroke="none" fill="{{human_skin_color}}" fill-rule="evenodd"></path>
        <path id="path1"
            d="M197.280 30.677 C 196.556 31.477,196.473 32.294,197.130 32.160 C 197.654 32.053,207.039 34.357,207.664 34.747 C 207.888 34.886,209.074 36.917,210.300 39.259 C 212.553 43.564,214.057 44.957,215.752 44.306 C 216.759 43.920,214.412 34.771,212.871 33.077 C 212.223 32.364,210.951 31.936,207.443 31.250 C 206.954 31.154,205.537 30.836,204.295 30.544 C 201.032 29.774,198.046 29.831,197.280 30.677 M183.970 36.389 C 182.678 37.955,182.642 39.792,183.873 41.459 C 184.949 42.918,186.149 44.080,186.559 44.060 C 186.941 44.041,189.259 40.888,189.259 40.386 C 189.259 40.174,189.422 40.000,189.620 40.000 C 190.044 40.000,191.111 38.054,191.111 37.281 C 191.111 35.322,185.437 34.613,183.970 36.389 "
            stroke="none" fill="{{human_hair_color}}" fill-rule="evenodd"></path>
        <path id="path2"
            d="M204.598 46.950 C 203.222 47.882,203.356 50.343,204.851 51.574 C 207.333 53.619,209.913 49.879,207.609 47.576 C 206.718 46.685,205.396 46.410,204.598 46.950 M217.769 50.580 C 217.216 52.033,217.317 52.481,218.494 53.790 C 219.793 55.237,220.539 54.853,220.480 52.769 C 220.407 50.190,218.502 48.652,217.769 50.580 "
            stroke="none" fill="{{human_eye_color}}" fill-rule="evenodd"></path>
        <path id="path3"
            d="M203.889 52.609 C 201.473 52.802,198.771 53.423,194.074 54.864 L 187.593 56.852 185.937 60.000 L 184.282 63.148 184.247 68.889 C 184.228 72.046,184.080 75.088,183.918 75.648 C 183.712 76.360,183.758 76.667,184.071 76.667 C 184.317 76.667,186.210 77.354,188.278 78.195 C 197.322 81.871,208.145 85.213,211.759 85.445 C 215.614 85.692,215.597 85.706,214.649 83.018 C 213.998 81.173,214.416 79.682,216.887 75.027 C 219.517 70.073,220.771 66.238,221.315 61.481 L 221.803 57.222 219.337 54.722 L 216.872 52.222 212.047 52.282 C 209.393 52.315,205.722 52.462,203.889 52.609 M176.642 76.059 C 175.245 76.345,172.719 77.543,168.811 79.772 L 163.042 83.062 162.683 84.874 C 162.222 87.205,162.546 87.350,164.640 85.752 C 166.589 84.264,166.716 84.245,169.613 84.996 C 174.431 86.244,177.130 87.847,179.072 90.612 C 180.051 92.007,181.241 93.570,181.715 94.086 C 182.487 94.926,182.619 95.592,182.979 100.435 L 183.380 105.845 182.274 109.635 C 181.013 113.953,179.884 115.469,176.941 116.797 C 175.316 117.530,174.977 117.937,172.630 121.962 L 170.083 126.331 171.014 129.739 C 171.525 131.614,172.896 135.898,174.060 139.259 L 176.177 145.370 175.033 151.508 L 173.889 157.646 170.278 162.690 C 166.265 168.294,166.246 168.347,167.697 169.738 C 169.024 171.009,176.772 171.469,196.984 171.476 L 210.450 171.481 218.541 173.355 C 222.990 174.385,226.931 175.251,227.297 175.278 C 227.663 175.305,230.013 174.212,232.518 172.849 C 235.024 171.486,237.305 170.370,237.587 170.370 C 238.948 170.370,240.203 169.587,239.578 169.128 C 239.244 168.883,237.661 166.020,236.060 162.767 L 233.148 156.852 233.223 149.260 L 233.298 141.667 235.604 135.016 C 237.450 129.691,238.565 127.200,241.194 122.526 L 244.477 116.689 242.582 110.814 L 240.687 104.940 231.572 97.933 C 220.445 89.380,223.530 90.950,206.659 85.253 C 198.820 82.606,189.708 79.341,186.409 77.998 C 180.093 75.426,179.908 75.389,176.642 76.059 M219.237 186.954 L 211.667 189.720 200.433 190.102 C 188.704 190.501,181.756 190.096,169.471 188.299 C 165.274 187.686,165.526 187.562,164.500 190.741 C 162.168 197.964,160.342 207.162,159.789 214.467 C 158.487 231.691,158.762 261.533,160.321 272.002 C 160.657 274.260,160.595 274.998,159.797 278.293 L 158.893 282.027 159.672 286.476 C 160.532 291.393,160.942 292.238,164.122 295.656 L 166.111 297.793 169.800 298.283 C 176.534 299.178,182.914 297.789,190.221 293.838 L 193.333 292.155 194.461 288.523 L 195.589 284.891 198.408 286.586 L 201.227 288.280 206.076 288.438 C 213.367 288.676,217.999 287.720,221.277 285.299 C 222.603 284.320,224.337 283.076,225.132 282.536 C 226.522 281.590,226.615 281.391,227.621 277.268 L 228.666 272.984 228.035 269.690 L 227.404 266.397 228.735 263.476 C 229.788 261.167,230.479 258.503,232.040 250.741 C 233.126 245.343,235.339 236.009,236.959 230.000 L 239.903 219.074 240.517 210.741 C 240.855 206.157,241.221 201.157,241.331 199.630 C 241.522 196.989,240.389 187.303,239.824 186.737 C 239.699 186.613,238.461 186.804,237.072 187.161 L 234.548 187.812 230.677 186.000 L 226.807 184.188 219.237 186.954 "
            stroke="none" fill="{{primary_color}}" fill-rule="evenodd"></path>
    </g>
</svg>