<svg id="svg" version="1.1" xmlns="http://www.w3.org/2000/svg" xmlns:xlink="http://www.w3.org/1999/xlink" width="400"
    height="400" viewBox="0, 0, 400,400">
    <g id="svgg">
        <path id="path0"
            d="M203.802 44.666 C 203.924 44.788,205.827 45.342,208.030 45.897 C 212.526 47.030,212.401 46.868,211.706 50.648 L 211.416 52.222 214.253 52.222 L 217.090 52.222 216.836 50.185 C 216.554 47.929,216.558 47.926,218.981 48.488 C 219.745 48.666,220.370 48.765,220.370 48.709 C 220.370 48.361,215.912 45.333,214.830 44.946 C 213.519 44.477,203.355 44.219,203.802 44.666 M201.286 45.319 C 200.884 45.597,199.389 46.455,197.963 47.226 C 191.801 50.558,190.054 51.701,187.870 53.832 C 185.419 56.223,185.334 56.407,185.943 58.008 L 186.331 59.028 187.006 57.918 C 187.624 56.902,188.300 56.623,194.907 54.662 L 202.132 52.517 202.362 50.836 C 202.685 48.484,202.650 44.815,202.305 44.815 C 202.146 44.815,201.688 45.042,201.286 45.319 M200.556 84.057 C 215.376 90.768,220.659 93.306,222.984 94.831 C 227.757 97.961,227.896 97.189,223.519 91.875 C 222.183 90.254,220.234 88.457,218.634 87.371 L 215.971 85.563 211.967 85.413 C 209.490 85.319,206.355 84.894,203.747 84.298 C 198.843 83.176,198.565 83.155,200.556 84.057 M165.672 86.976 C 164.209 87.987,162.778 88.790,162.492 88.759 C 160.484 88.544,156.754 94.155,151.122 105.867 L 145.605 117.337 143.191 126.354 C 141.864 131.313,140.596 136.732,140.375 138.396 C 139.588 144.315,138.167 148.272,134.623 154.417 C 133.054 157.137,132.803 157.879,132.470 160.782 C 132.017 164.732,131.531 164.213,137.083 165.717 C 139.604 166.400,143.300 167.560,145.297 168.294 L 148.927 169.630 149.428 168.426 C 150.485 165.887,151.071 162.970,151.493 158.152 C 151.983 152.542,152.684 150.605,155.177 147.963 C 158.067 144.901,167.974 128.383,167.679 127.119 C 167.315 125.557,172.479 116.945,176.485 112.433 C 180.313 108.120,180.911 106.034,180.546 98.246 C 180.285 92.688,180.261 92.565,179.307 91.873 C 178.771 91.485,177.479 90.359,176.435 89.370 C 174.531 87.568,171.280 85.716,169.359 85.339 C 168.548 85.180,167.776 85.523,165.672 86.976 M238.849 126.647 L 237.883 128.472 238.925 135.995 C 241.643 155.624,244.334 166.895,246.190 166.429 C 247.754 166.036,251.473 163.574,251.477 162.928 C 251.488 161.463,249.795 157.731,247.053 153.175 C 244.110 148.284,244.074 148.194,244.074 145.721 C 244.074 141.010,240.964 124.807,240.062 124.818 C 239.926 124.820,239.380 125.643,238.849 126.647 M255.000 179.078 C 254.389 179.353,252.722 179.781,251.296 180.030 C 247.641 180.669,247.626 180.960,250.969 186.199 C 251.747 187.417,252.548 189.485,253.125 191.759 C 254.715 198.031,257.072 203.990,259.222 207.171 L 261.190 210.083 263.365 209.926 C 266.034 209.733,265.868 209.908,266.692 206.407 C 267.435 203.250,266.821 194.607,265.763 193.333 C 259.155 185.381,258.628 184.620,257.619 181.574 C 257.062 179.894,256.495 178.532,256.358 178.549 C 256.222 178.565,255.611 178.803,255.000 179.078 M129.259 184.923 C 129.259 189.418,127.546 196.399,124.960 202.440 L 122.171 208.957 122.931 214.915 L 123.691 220.874 126.322 224.854 C 129.414 229.529,129.035 229.314,133.377 228.865 C 137.463 228.442,136.860 228.980,138.186 224.573 C 139.934 218.766,140.658 209.341,139.915 202.069 L 139.351 196.545 140.985 192.101 C 141.884 189.657,142.489 187.527,142.328 187.367 C 141.764 186.807,129.259 184.469,129.259 184.923 M219.599 286.486 C 217.594 288.491,202.720 289.203,199.853 287.431 C 198.238 286.433,198.156 286.482,197.742 288.698 C 197.483 290.084,197.910 293.273,200.083 306.215 L 202.741 322.037 202.879 331.709 L 203.017 341.382 205.490 341.786 C 206.850 342.009,209.085 342.304,210.455 342.442 L 212.948 342.693 219.159 348.011 L 225.370 353.329 230.556 354.973 C 233.407 355.878,236.157 356.718,236.667 356.841 C 237.471 357.035,237.998 356.624,240.672 353.719 C 245.225 348.771,245.371 349.094,236.173 343.729 L 228.828 339.444 223.999 331.481 L 219.169 323.519 220.048 307.778 C 220.883 292.798,221.001 285.926,220.422 285.926 C 220.277 285.926,219.907 286.178,219.599 286.486 M183.704 296.867 C 182.583 297.349,181.083 297.758,180.370 297.775 C 179.657 297.793,177.824 298.027,176.296 298.296 C 172.684 298.932,166.623 298.214,165.326 296.996 C 164.379 296.105,164.408 296.054,163.684 299.870 C 163.257 302.117,163.293 302.315,166.296 314.500 C 170.339 330.901,171.270 336.703,170.525 340.849 C 170.224 342.521,169.830 345.889,169.649 348.333 L 169.321 352.778 170.643 355.185 C 173.764 360.867,186.567 377.037,187.945 377.037 C 188.681 377.037,202.852 373.816,203.280 373.551 C 203.954 373.135,202.068 369.446,198.491 364.184 C 196.663 361.494,192.935 355.776,190.208 351.476 L 185.248 343.658 184.967 340.440 C 184.780 338.297,185.021 330.605,185.689 317.407 C 186.241 306.509,186.686 297.218,186.679 296.759 C 186.664 295.738,186.296 295.752,183.704 296.867 "
            stroke="none" fill="{{human_skin_color}}" fill-rule="evenodd"></path>
        <path id="path1"
            d="M192.876 29.218 C 188.604 30.525,184.866 35.343,184.225 40.370 C 184.081 41.491,183.739 43.053,183.464 43.843 C 182.281 47.234,182.991 56.218,184.610 58.341 C 185.839 59.952,186.451 59.618,185.850 57.661 L 185.422 56.267 187.619 54.036 C 189.394 52.233,197.367 47.037,198.360 47.037 C 198.441 47.037,199.385 46.495,200.457 45.833 L 202.407 44.630 208.519 44.630 C 215.408 44.630,215.277 44.591,219.154 47.738 C 222.713 50.626,223.136 49.654,220.796 43.964 C 219.372 40.498,219.084 39.396,219.052 37.269 L 219.014 34.724 216.822 33.696 C 214.858 32.776,212.822 32.172,202.963 29.581 C 200.418 28.913,194.562 28.702,192.876 29.218 "
            stroke="none" fill="{{human_hair_color}}" fill-rule="evenodd"></path>
        <path id="path2"
            d="M204.598 46.950 C 203.222 47.882,203.356 50.343,204.851 51.574 C 207.333 53.619,209.913 49.879,207.609 47.576 C 206.718 46.685,205.396 46.410,204.598 46.950 M218.312 49.785 C 217.277 50.542,217.369 53.459,218.461 54.551 C 219.872 55.963,220.760 54.388,220.303 51.280 C 220.004 49.246,219.533 48.892,218.312 49.785 "
            stroke="none" fill="{{human_eye_color}}" fill-rule="evenodd"></path>
        <path id="path3"
            d="M203.889 52.604 C 201.488 52.800,198.743 53.432,194.074 54.864 L 187.593 56.852 185.940 60.000 L 184.287 63.148 184.216 69.074 C 184.177 72.333,184.087 75.333,184.017 75.741 C 183.917 76.321,184.331 76.698,185.926 77.478 C 188.797 78.883,188.151 78.753,183.749 77.037 C 177.981 74.789,176.762 75.019,169.720 79.679 C 167.020 81.466,164.547 83.076,164.224 83.257 C 163.554 83.632,162.112 88.407,162.581 88.697 C 162.751 88.801,164.163 88.018,165.720 86.955 L 168.551 85.023 170.479 85.705 C 172.747 86.507,175.937 88.542,177.124 89.945 C 177.585 90.490,178.484 91.306,179.121 91.757 L 180.280 92.579 180.546 98.246 C 180.906 105.939,180.294 108.152,176.678 112.222 C 173.182 116.158,172.495 117.147,169.848 122.047 L 167.494 126.405 169.244 130.152 C 170.511 132.867,171.336 135.415,172.237 139.398 L 173.480 144.897 172.899 151.245 L 172.319 157.593 168.928 162.947 L 165.537 168.302 166.750 169.512 C 168.438 171.195,172.400 171.479,197.407 171.705 L 217.222 171.884 226.852 173.938 L 236.481 175.992 240.556 173.668 C 242.796 172.390,245.213 171.141,245.926 170.893 C 247.348 170.398,247.927 169.259,246.757 169.259 C 244.975 169.259,241.468 154.362,238.921 135.972 L 237.876 128.424 241.177 122.556 L 244.478 116.687 241.667 110.844 L 238.856 105.000 230.076 99.620 C 222.891 95.217,219.025 93.171,208.794 88.357 C 201.918 85.121,196.362 82.403,196.448 82.318 C 196.533 82.232,196.990 82.369,197.463 82.623 C 199.033 83.463,207.534 85.171,211.389 85.422 C 215.657 85.699,215.608 85.735,214.649 83.018 C 213.998 81.173,214.416 79.682,216.887 75.027 C 222.005 65.386,223.030 56.894,219.295 55.073 C 218.795 54.829,218.111 54.130,217.775 53.519 L 217.163 52.407 212.193 52.370 C 209.459 52.349,205.722 52.455,203.889 52.604 M194.444 81.296 C 195.361 81.787,195.944 82.189,195.741 82.189 C 195.537 82.189,194.620 81.787,193.704 81.296 C 192.787 80.805,192.204 80.404,192.407 80.404 C 192.611 80.404,193.528 80.805,194.444 81.296 M226.400 187.989 L 218.540 190.686 206.770 191.037 C 194.446 191.405,186.929 190.925,170.370 188.716 C 168.028 188.403,165.775 188.147,165.364 188.148 C 164.356 188.148,163.108 191.808,161.086 200.688 L 159.539 207.488 159.935 228.466 C 160.152 240.004,160.215 253.528,160.073 258.519 C 159.896 264.731,159.952 268.701,160.250 271.108 C 160.658 274.396,160.628 274.862,159.790 278.325 L 158.893 282.027 159.672 286.476 C 160.532 291.393,160.943 292.241,164.122 295.654 L 166.111 297.789 169.815 298.287 C 172.896 298.702,173.985 298.703,176.296 298.296 C 177.824 298.027,179.611 297.801,180.268 297.792 C 181.789 297.774,186.113 296.059,190.171 293.865 L 193.333 292.155 194.461 288.523 L 195.589 284.891 198.408 286.586 L 201.227 288.280 206.076 288.438 C 213.367 288.676,217.999 287.720,221.277 285.299 C 222.603 284.320,224.337 283.076,225.132 282.536 C 226.522 281.590,226.615 281.391,227.621 277.268 L 228.666 272.984 228.035 269.690 L 227.404 266.397 228.723 263.502 C 231.077 258.337,233.874 243.691,234.994 230.671 L 235.908 220.045 238.258 216.411 C 240.464 213.001,240.694 212.432,242.011 207.143 C 243.200 202.367,243.627 201.222,244.808 199.639 C 246.299 197.640,246.423 197.112,246.887 190.774 C 247.130 187.448,247.110 187.301,246.441 187.582 C 243.648 188.755,242.906 188.683,239.347 186.896 C 235.161 184.794,235.889 184.732,226.400 187.989 "
            stroke="none" fill="{{primary_color}}" fill-rule="evenodd"></path>
    </g>
</svg>