<svg id="svg" version="1.1" xmlns="http://www.w3.org/2000/svg" xmlns:xlink="http://www.w3.org/1999/xlink" width="400"
    height="400" viewBox="0, 0, 400,400">
    <g id="svgg">
        <path id="path0"
            d="M205.370 44.194 L 202.037 44.630 206.481 45.693 C 211.890 46.988,211.679 46.803,211.122 49.760 L 210.667 52.166 207.834 52.395 C 206.275 52.520,204.211 52.715,203.247 52.827 L 201.495 53.031 201.733 48.872 C 201.873 46.415,201.833 44.772,201.634 44.857 C 201.296 45.000,195.412 48.244,191.373 50.514 C 190.193 51.177,188.883 52.063,188.463 52.484 L 187.699 53.248 191.349 53.475 C 193.357 53.599,199.167 53.871,204.259 54.078 C 209.352 54.285,214.312 54.528,215.282 54.618 C 216.850 54.763,217.009 54.711,216.719 54.150 C 216.539 53.803,216.277 52.310,216.137 50.833 C 215.854 47.867,215.803 47.922,218.281 48.497 L 219.710 48.829 217.571 46.915 C 216.395 45.862,215.102 44.765,214.699 44.478 C 213.719 43.781,209.514 43.653,205.370 44.194 M178.611 75.462 C 174.964 77.499,174.713 78.148,177.576 78.148 C 181.471 78.148,186.644 81.788,196.988 91.804 C 201.749 96.414,209.042 103.436,213.195 107.409 L 220.747 114.633 226.142 124.076 C 230.565 131.817,231.507 133.719,231.368 134.630 C 231.276 135.241,231.336 136.003,231.504 136.323 C 231.674 136.650,231.463 140.024,231.021 144.026 C 230.386 149.774,230.319 151.380,230.673 152.359 C 230.914 153.026,231.111 154.523,231.111 155.686 L 231.111 157.800 234.320 161.400 C 236.084 163.380,237.726 165.219,237.968 165.487 C 238.332 165.890,238.789 165.881,240.593 165.435 C 241.795 165.138,244.319 164.678,246.204 164.413 C 248.170 164.136,249.630 163.756,249.630 163.520 C 249.630 162.988,252.954 161.291,253.796 161.394 C 254.839 161.521,252.930 151.582,251.569 149.799 C 251.215 149.336,249.645 147.397,248.079 145.489 L 245.232 142.021 244.810 133.325 L 244.389 124.630 240.869 116.111 C 238.660 110.764,236.646 106.512,235.460 104.691 C 233.119 101.098,223.343 91.696,219.027 88.888 C 217.423 87.844,215.489 86.387,214.729 85.649 C 213.969 84.911,213.233 84.422,213.093 84.561 C 212.954 84.701,213.076 84.817,213.364 84.820 C 213.798 84.825,213.793 84.887,213.336 85.175 C 213.033 85.368,212.366 85.447,211.855 85.353 C 211.344 85.258,211.135 85.279,211.391 85.400 C 212.206 85.783,211.475 86.308,210.440 86.083 C 209.806 85.945,209.613 85.986,209.909 86.197 C 210.244 86.435,210.013 86.700,209.086 87.142 C 207.679 87.813,207.788 87.846,201.111 84.711 C 193.069 80.935,185.793 78.081,183.519 77.812 L 181.667 77.593 181.770 75.648 C 181.827 74.579,181.827 73.715,181.770 73.730 C 181.713 73.744,180.292 74.524,178.611 75.462 M159.486 89.288 C 158.108 90.119,156.738 90.705,156.439 90.591 C 154.737 89.937,153.624 91.621,147.288 104.423 L 141.138 116.852 139.826 124.690 C 138.007 135.553,135.812 141.116,131.885 144.815 L 129.329 147.222 129.029 153.148 C 128.864 156.407,128.723 159.216,128.716 159.390 C 128.709 159.564,130.704 160.286,133.148 160.995 C 137.506 162.260,144.209 164.941,146.557 166.359 L 147.743 167.076 148.452 165.668 C 148.842 164.893,150.017 162.318,151.062 159.945 L 152.963 155.632 152.965 150.316 L 152.967 145.000 155.042 142.407 C 159.703 136.584,163.068 131.368,163.165 129.815 C 163.282 127.937,165.579 122.577,166.488 122.059 C 166.867 121.843,167.603 121.167,168.125 120.557 C 168.647 119.947,169.993 118.447,171.116 117.224 C 172.787 115.403,173.318 114.485,174.043 112.157 L 174.928 109.313 173.786 103.351 C 172.307 95.626,170.072 92.131,164.685 89.119 C 161.798 87.504,162.480 87.482,159.486 89.288 M255.241 174.611 C 254.559 175.096,252.892 175.783,251.538 176.138 C 248.328 176.979,248.324 176.986,249.617 178.939 C 250.516 180.295,250.828 181.354,251.280 184.574 C 252.246 191.453,254.130 196.667,256.968 200.311 L 259.373 203.400 261.075 203.155 C 264.434 202.671,264.265 202.834,265.057 199.326 C 265.708 196.442,265.743 195.629,265.392 191.428 L 265.000 186.746 261.626 181.799 C 259.692 178.963,258.105 176.221,257.909 175.373 C 257.499 173.604,256.899 173.433,255.241 174.611 M127.622 179.952 C 127.512 180.131,127.320 181.507,127.197 183.009 C 127.071 184.553,126.101 188.837,124.968 192.861 L 122.962 199.981 123.879 205.565 C 124.383 208.637,124.906 211.349,125.042 211.593 C 129.472 219.550,130.143 220.040,135.368 219.136 L 137.957 218.688 139.896 214.251 L 141.835 209.815 141.844 202.973 C 141.851 196.736,141.752 195.665,140.726 190.855 C 139.677 185.943,139.639 185.501,140.170 184.474 C 141.294 182.300,140.351 181.837,131.852 180.392 C 130.528 180.167,129.080 179.903,128.634 179.805 C 128.188 179.707,127.733 179.773,127.622 179.952 M198.038 284.712 C 197.148 286.244,197.471 289.609,199.968 304.815 C 202.525 320.391,202.555 320.654,202.815 329.921 C 202.959 335.072,203.194 339.358,203.337 339.447 C 203.481 339.535,205.580 339.811,208.003 340.059 L 212.407 340.509 217.778 345.186 C 224.409 350.962,223.908 350.665,230.242 352.596 L 235.484 354.194 238.468 351.078 C 242.964 346.385,243.045 346.595,234.934 341.819 C 226.687 336.963,227.818 338.120,222.658 329.252 L 218.236 321.653 219.666 306.660 C 220.452 298.414,221.099 290.821,221.103 289.787 L 221.111 287.907 216.990 288.453 C 211.335 289.201,202.847 287.830,199.945 285.701 C 198.988 284.998,198.130 284.553,198.038 284.712 M161.116 297.839 C 160.890 298.722,160.544 299.934,160.347 300.533 C 160.064 301.394,160.566 304.645,162.748 316.089 C 165.706 331.598,166.303 336.863,165.583 341.111 C 165.359 342.435,165.014 345.571,164.816 348.079 L 164.458 352.640 165.524 354.746 C 167.509 358.665,171.157 363.801,176.204 369.783 C 178.969 373.060,181.290 375.812,181.361 375.900 C 181.557 376.140,196.061 372.945,196.447 372.576 C 197.049 372.000,195.305 368.306,192.311 363.815 C 190.708 361.411,187.199 355.844,184.513 351.444 L 179.629 343.443 179.394 339.592 C 178.816 330.121,180.477 306.032,182.079 300.648 C 182.257 300.052,181.848 300.000,177.016 300.000 L 171.760 300.000 167.269 298.365 C 164.799 297.465,162.496 296.618,162.152 296.482 C 161.653 296.284,161.444 296.558,161.116 297.839 "
            stroke="none" fill="{{human_skin_color}}" fill-rule="evenodd"></path>
        <path id="path1"
            d="M200.370 23.023 C 199.238 23.216,198.472 23.609,197.980 24.250 L 197.257 25.193 196.493 24.236 C 195.155 22.558,189.259 24.539,189.259 26.666 C 189.259 27.690,189.201 27.735,188.364 27.354 C 187.013 26.739,184.306 28.621,184.143 30.289 C 184.055 31.196,183.850 31.481,183.286 31.481 C 182.753 31.481,182.318 31.998,181.736 33.325 C 181.251 34.428,180.686 35.171,180.328 35.176 C 179.244 35.192,177.778 36.656,177.778 37.722 C 177.778 38.273,177.527 39.082,177.221 39.519 C 176.599 40.406,176.900 41.710,177.921 42.558 C 178.285 42.860,178.433 43.361,178.306 43.866 C 178.180 44.368,178.326 44.871,178.683 45.168 C 179.203 45.599,179.166 45.742,178.336 46.511 C 177.825 46.985,177.407 47.785,177.407 48.291 C 177.407 48.884,177.145 49.293,176.667 49.444 C 175.824 49.712,175.823 49.715,175.906 52.950 C 175.971 55.482,176.296 56.174,177.670 56.696 C 178.219 56.905,178.519 57.323,178.519 57.880 C 178.519 60.204,181.914 60.407,183.673 58.187 C 184.301 57.394,184.815 56.597,184.815 56.417 C 184.815 55.742,189.305 51.676,191.259 50.581 C 192.374 49.956,195.172 48.387,197.477 47.095 C 201.537 44.818,201.799 44.728,205.926 44.193 C 213.022 43.272,213.798 43.480,218.230 47.491 L 219.979 49.074 219.690 51.138 C 219.210 54.568,219.785 54.631,223.314 51.538 L 224.961 50.093 224.293 49.028 C 223.925 48.442,223.132 47.543,222.531 47.029 L 221.438 46.095 223.344 43.203 L 225.251 40.312 224.065 37.441 C 222.754 34.264,221.985 33.563,219.903 33.644 C 218.140 33.713,217.482 32.508,218.060 30.268 C 218.609 28.138,214.924 25.783,213.316 27.238 C 212.610 27.877,212.593 27.858,212.593 26.399 C 212.593 24.622,212.296 24.336,209.630 23.545 L 207.593 22.940 206.761 23.970 C 206.304 24.537,205.929 25.125,205.928 25.278 C 205.923 25.923,205.332 25.478,204.901 24.505 C 204.318 23.189,202.632 22.637,200.370 23.023 "
            stroke="none" fill="{{human_hair_color}}" fill-rule="evenodd"></path>
        <path id="path2"
            d="M203.857 46.950 C 202.481 47.882,202.615 50.343,204.110 51.574 C 206.592 53.619,209.172 49.879,206.869 47.576 C 205.978 46.685,204.655 46.410,203.857 46.950 M217.568 49.787 C 216.547 50.534,216.629 53.460,217.701 54.532 C 218.770 55.602,219.526 54.921,219.568 52.850 C 219.612 50.649,218.571 49.054,217.568 49.787 M254.074 162.956 C 254.074 163.968,254.756 165.265,255.158 165.017 C 255.596 164.746,255.070 162.492,254.528 162.312 C 254.264 162.224,254.074 162.493,254.074 162.956 "
            stroke="none" fill="{{human_eye_color}}" fill-rule="evenodd"></path>
        <path id="path3"
            d="M186.204 54.702 C 185.440 55.494,184.815 56.278,184.815 56.444 C 184.815 57.126,182.479 59.630,181.843 59.630 C 180.685 59.630,180.654 60.253,181.642 63.686 C 182.747 67.528,182.789 68.586,182.023 73.311 C 181.343 77.504,181.417 77.778,183.229 77.778 C 184.936 77.779,192.386 80.657,200.741 84.543 C 208.012 87.925,207.668 87.818,209.086 87.142 C 210.013 86.700,210.244 86.435,209.909 86.197 C 209.613 85.986,209.806 85.945,210.440 86.083 C 211.476 86.308,212.204 85.784,211.391 85.398 C 211.135 85.276,211.317 85.251,211.795 85.341 C 213.019 85.572,213.934 85.199,213.272 84.739 C 212.923 84.497,213.002 84.458,213.538 84.607 C 215.113 85.045,216.996 78.567,215.444 78.049 C 215.214 77.973,215.186 77.373,215.370 76.463 C 215.614 75.256,215.704 75.142,215.888 75.815 C 216.063 76.454,216.499 75.747,217.904 72.550 C 221.491 64.387,222.063 62.852,221.574 62.687 C 221.024 62.501,220.937 59.630,221.481 59.630 C 223.131 59.630,218.863 55.390,216.667 54.847 C 215.954 54.671,210.620 54.337,204.815 54.105 C 199.009 53.872,192.759 53.588,190.926 53.473 L 187.593 53.263 186.204 54.702 M164.815 82.625 C 157.023 87.441,156.296 88.041,156.296 89.671 C 156.296 90.939,156.810 91.017,158.333 89.979 C 158.944 89.563,160.074 88.892,160.843 88.488 L 162.242 87.753 164.663 89.106 C 170.073 92.132,172.305 95.616,173.786 103.351 L 174.928 109.313 174.043 112.157 C 173.318 114.485,172.787 115.403,171.116 117.224 C 169.993 118.447,168.647 119.947,168.125 120.557 C 167.603 121.167,166.860 121.847,166.474 122.067 C 166.088 122.288,165.111 124.079,164.302 126.049 L 162.832 129.629 165.169 135.463 L 167.507 141.296 168.176 149.389 C 168.543 153.840,168.962 160.049,169.105 163.186 L 169.366 168.889 167.831 168.889 C 166.116 168.889,165.806 169.462,167.229 170.002 C 168.784 170.594,181.674 171.104,195.161 171.108 L 207.914 171.111 215.261 173.151 L 222.608 175.191 226.822 172.771 C 232.273 169.641,231.959 170.371,230.534 164.143 L 229.321 158.842 230.567 147.942 L 231.814 137.041 226.555 126.335 L 221.296 115.628 211.296 106.238 C 190.550 86.756,187.485 84.049,182.742 81.014 L 178.261 78.148 175.149 78.155 L 172.037 78.162 164.815 82.625 M215.083 82.315 C 215.001 82.977,214.933 82.435,214.933 81.111 C 214.933 79.787,215.001 79.245,215.083 79.907 C 215.165 80.569,215.165 81.653,215.083 82.315 M211.960 185.719 L 204.846 188.807 196.589 188.981 C 187.183 189.179,176.096 188.523,169.833 187.397 C 167.601 186.996,165.669 186.793,165.538 186.945 C 165.069 187.489,164.075 194.371,163.518 200.926 C 162.067 218.024,160.429 232.773,156.851 260.974 L 155.200 273.985 155.875 275.972 C 156.538 277.922,156.537 277.997,155.791 280.045 L 155.030 282.132 155.937 285.974 C 156.631 288.918,157.172 290.290,158.253 291.852 C 159.028 292.972,160.020 294.406,160.457 295.038 C 161.123 296.002,162.116 296.501,166.607 298.131 L 171.963 300.074 177.937 299.944 L 183.911 299.815 187.604 297.747 C 191.132 295.771,191.408 295.524,193.807 292.191 L 196.319 288.704 196.183 285.833 C 196.109 284.255,196.109 282.963,196.184 282.963 C 196.259 282.963,197.523 283.866,198.993 284.969 L 201.667 286.975 207.214 287.984 L 212.761 288.994 217.770 288.347 L 222.778 287.700 224.524 285.794 C 225.484 284.746,227.045 282.407,227.994 280.596 L 229.718 277.303 229.457 273.275 C 229.204 269.366,229.225 269.198,230.170 267.585 L 231.144 265.923 232.418 242.719 C 233.270 227.204,233.775 213.993,233.944 202.848 L 234.196 186.179 232.931 186.465 C 230.988 186.903,230.362 186.785,227.389 185.420 C 224.416 184.054,221.954 183.173,220.185 182.840 C 219.323 182.678,217.478 183.324,211.960 185.719 "
            stroke="none" fill="{{primary_color}}" fill-rule="evenodd"></path>
    </g>
</svg>