<svg id="svg" version="1.1" xmlns="http://www.w3.org/2000/svg" xmlns:xlink="http://www.w3.org/1999/xlink" width="400"
    height="400" viewBox="0, 0, 400,400">
    <g id="svgg">
        <path id="path0"
            d="M211.785 45.492 C 209.761 46.215,209.186 46.667,210.287 46.667 C 211.455 46.667,211.600 47.222,211.112 49.812 L 210.667 52.166 207.834 52.395 C 206.275 52.520,204.183 52.719,203.184 52.836 L 201.368 53.048 201.590 51.174 L 201.812 49.300 200.258 49.187 L 198.704 49.074 198.817 47.651 C 198.903 46.562,198.816 46.294,198.446 46.510 C 194.894 48.590,189.292 52.344,189.136 52.750 C 188.887 53.400,190.558 53.548,204.074 54.076 C 209.472 54.287,214.602 54.537,215.473 54.632 C 216.884 54.785,217.021 54.733,216.725 54.161 C 216.542 53.808,216.275 52.289,216.132 50.787 L 215.872 48.056 217.288 48.307 C 218.067 48.445,219.029 48.654,219.427 48.772 C 220.338 49.042,219.930 48.627,217.081 46.384 C 214.898 44.665,214.355 44.573,211.785 45.492 M178.611 75.462 C 174.964 77.499,174.713 78.148,177.576 78.148 C 181.471 78.148,186.644 81.788,196.988 91.804 C 201.749 96.414,209.042 103.436,213.195 107.409 L 220.747 114.633 226.142 124.076 C 230.565 131.817,231.507 133.719,231.368 134.630 C 231.276 135.241,231.336 136.003,231.504 136.323 C 231.674 136.650,231.463 140.024,231.021 144.026 C 230.386 149.774,230.319 151.380,230.673 152.359 C 230.914 153.026,231.111 154.523,231.111 155.686 L 231.111 157.800 234.320 161.400 C 236.084 163.380,237.726 165.219,237.968 165.487 C 238.332 165.890,238.789 165.881,240.593 165.435 C 241.795 165.138,244.319 164.678,246.204 164.413 C 248.170 164.136,249.630 163.756,249.630 163.520 C 249.630 162.988,252.954 161.291,253.796 161.394 C 254.839 161.521,252.930 151.582,251.569 149.799 C 251.215 149.336,249.645 147.397,248.079 145.489 L 245.232 142.021 244.810 133.325 L 244.389 124.630 240.869 116.111 C 238.660 110.764,236.646 106.512,235.460 104.691 C 233.119 101.098,223.343 91.696,219.027 88.888 C 217.423 87.844,215.489 86.387,214.729 85.649 C 213.969 84.911,213.233 84.422,213.093 84.561 C 212.954 84.701,213.076 84.817,213.364 84.820 C 213.798 84.825,213.793 84.887,213.336 85.175 C 213.033 85.368,212.366 85.447,211.855 85.353 C 211.344 85.258,211.135 85.279,211.391 85.400 C 212.206 85.783,211.475 86.308,210.440 86.083 C 209.806 85.945,209.613 85.986,209.909 86.197 C 210.244 86.435,210.013 86.700,209.086 87.142 C 207.679 87.813,207.788 87.846,201.111 84.711 C 193.069 80.935,185.793 78.081,183.519 77.812 L 181.667 77.593 181.770 75.648 C 181.827 74.579,181.827 73.715,181.770 73.730 C 181.713 73.744,180.292 74.524,178.611 75.462 M159.486 89.288 C 158.108 90.119,156.738 90.705,156.439 90.591 C 154.737 89.937,153.624 91.621,147.288 104.423 L 141.138 116.852 139.826 124.690 C 138.007 135.553,135.812 141.116,131.885 144.815 L 129.329 147.222 129.029 153.148 C 128.864 156.407,128.723 159.216,128.716 159.390 C 128.709 159.564,130.704 160.286,133.148 160.995 C 137.506 162.260,144.209 164.941,146.557 166.359 L 147.743 167.076 148.452 165.668 C 148.842 164.893,150.017 162.318,151.062 159.945 L 152.963 155.632 152.965 150.316 L 152.967 145.000 155.042 142.407 C 159.703 136.584,163.068 131.368,163.165 129.815 C 163.282 127.937,165.579 122.577,166.488 122.059 C 166.867 121.843,167.603 121.167,168.125 120.557 C 168.647 119.947,169.993 118.447,171.116 117.224 C 172.787 115.403,173.318 114.485,174.043 112.157 L 174.928 109.313 173.786 103.351 C 172.307 95.626,170.072 92.131,164.685 89.119 C 161.798 87.504,162.480 87.482,159.486 89.288 M255.241 174.611 C 254.559 175.096,252.892 175.783,251.538 176.138 C 248.328 176.979,248.324 176.986,249.617 178.939 C 250.516 180.295,250.828 181.354,251.280 184.574 C 252.246 191.453,254.130 196.667,256.968 200.311 L 259.373 203.400 261.075 203.155 C 264.434 202.671,264.265 202.834,265.057 199.326 C 265.708 196.442,265.743 195.629,265.392 191.428 L 265.000 186.746 261.626 181.799 C 259.692 178.963,258.105 176.221,257.909 175.373 C 257.499 173.604,256.899 173.433,255.241 174.611 M127.622 179.952 C 127.512 180.131,127.320 181.507,127.197 183.009 C 127.071 184.553,126.101 188.837,124.968 192.861 L 122.962 199.981 123.879 205.565 C 124.383 208.637,124.906 211.349,125.042 211.593 C 129.472 219.550,130.143 220.040,135.368 219.136 L 137.957 218.688 139.896 214.251 L 141.835 209.815 141.844 202.973 C 141.851 196.736,141.752 195.665,140.726 190.855 C 139.677 185.943,139.639 185.501,140.170 184.474 C 141.294 182.300,140.351 181.837,131.852 180.392 C 130.528 180.167,129.080 179.903,128.634 179.805 C 128.188 179.707,127.733 179.773,127.622 179.952 M198.038 284.712 C 197.148 286.244,197.471 289.609,199.968 304.815 C 202.525 320.391,202.555 320.654,202.815 329.921 C 202.959 335.072,203.194 339.358,203.337 339.447 C 203.481 339.535,205.580 339.811,208.003 340.059 L 212.407 340.509 217.778 345.186 C 224.409 350.962,223.908 350.665,230.242 352.596 L 235.484 354.194 238.468 351.078 C 242.964 346.385,243.045 346.595,234.934 341.819 C 226.687 336.963,227.818 338.120,222.658 329.252 L 218.236 321.653 219.666 306.660 C 220.452 298.414,221.099 290.821,221.103 289.787 L 221.111 287.907 216.990 288.453 C 211.335 289.201,202.847 287.830,199.945 285.701 C 198.988 284.998,198.130 284.553,198.038 284.712 M161.116 297.839 C 160.890 298.722,160.544 299.934,160.347 300.533 C 160.064 301.394,160.566 304.645,162.748 316.089 C 165.706 331.598,166.303 336.863,165.583 341.111 C 165.359 342.435,165.014 345.571,164.816 348.079 L 164.458 352.640 165.524 354.746 C 167.509 358.665,171.157 363.801,176.204 369.783 C 178.969 373.060,181.290 375.812,181.361 375.900 C 181.557 376.140,196.061 372.945,196.447 372.576 C 197.049 372.000,195.305 368.306,192.311 363.815 C 190.708 361.411,187.199 355.844,184.513 351.444 L 179.629 343.443 179.394 339.592 C 178.816 330.121,180.477 306.032,182.079 300.648 C 182.257 300.052,181.848 300.000,177.016 300.000 L 171.760 300.000 167.269 298.365 C 164.799 297.465,162.496 296.618,162.152 296.482 C 161.653 296.284,161.444 296.558,161.116 297.839 "
            stroke="none" fill="{{human_skin_color}}" fill-rule="evenodd"></path>
        <path id="path1"
            d="M198.825 24.360 C 196.535 26.018,194.591 27.729,194.204 28.426 C 193.568 29.570,193.425 29.631,191.305 29.658 C 190.078 29.674,188.741 29.764,188.333 29.858 C 187.926 29.952,186.696 30.036,185.600 30.045 L 183.607 30.060 183.863 33.553 L 184.119 37.045 182.958 37.689 C 180.447 39.082,180.488 39.009,181.167 40.842 C 181.549 41.870,181.654 42.679,181.450 43.002 C 180.797 44.032,181.106 50.781,181.964 54.259 C 183.108 58.894,183.072 58.871,185.218 56.292 C 186.338 54.947,187.353 54.074,187.799 54.074 C 188.227 54.074,188.714 53.681,188.963 53.132 C 189.312 52.368,193.833 49.211,198.446 46.510 C 198.816 46.294,198.903 46.562,198.817 47.651 L 198.704 49.074 200.411 49.185 C 201.637 49.264,202.734 49.020,204.300 48.320 C 207.038 47.096,213.661 44.815,214.476 44.815 C 215.003 44.815,218.052 46.976,219.563 48.421 C 220.850 49.651,221.135 48.822,220.334 46.182 C 219.313 42.820,218.862 40.051,219.220 39.332 C 220.594 36.568,221.388 33.038,220.690 32.798 C 220.066 32.582,216.978 32.283,215.021 32.248 C 213.744 32.225,213.312 31.961,211.576 30.140 C 209.605 28.072,209.579 28.059,207.765 28.233 L 205.938 28.409 205.232 26.519 C 204.844 25.480,204.315 23.921,204.057 23.056 C 203.446 21.011,203.451 21.010,198.825 24.360 "
            stroke="none" fill="{{human_hair_color}}" fill-rule="evenodd"></path>
        <path id="path2"
            d="M204.537 48.193 C 202.691 49.042,202.500 49.941,203.872 51.313 C 206.022 53.463,208.871 50.883,207.394 48.124 C 206.929 47.254,206.562 47.263,204.537 48.193 M217.573 49.784 C 216.537 50.542,216.627 53.458,217.720 54.551 C 218.469 55.301,218.552 55.310,219.146 54.716 C 220.575 53.288,219.101 48.666,217.573 49.784 M254.074 162.956 C 254.074 163.968,254.756 165.265,255.158 165.017 C 255.596 164.746,255.070 162.492,254.528 162.312 C 254.264 162.224,254.074 162.493,254.074 162.956 "
            stroke="none" fill="{{human_eye_color}}" fill-rule="evenodd"></path>
        <path id="path3"
            d="M188.724 53.670 C 188.587 53.892,188.157 54.074,187.769 54.074 C 187.362 54.074,186.306 54.984,185.272 56.228 C 184.286 57.413,183.313 58.327,183.111 58.259 C 182.908 58.192,182.276 58.624,181.705 59.219 L 180.668 60.302 181.630 63.646 C 182.748 67.530,182.790 68.579,182.023 73.311 C 181.343 77.504,181.417 77.778,183.229 77.778 C 184.936 77.779,192.386 80.657,200.741 84.543 C 208.012 87.925,207.668 87.818,209.086 87.142 C 210.013 86.700,210.244 86.435,209.909 86.197 C 209.613 85.986,209.806 85.945,210.440 86.083 C 211.476 86.308,212.204 85.784,211.391 85.398 C 211.135 85.276,211.317 85.251,211.795 85.341 C 213.019 85.572,213.934 85.199,213.272 84.739 C 212.923 84.497,213.002 84.458,213.538 84.607 C 215.113 85.045,216.996 78.567,215.444 78.049 C 215.214 77.973,215.186 77.373,215.370 76.463 C 215.614 75.256,215.704 75.142,215.888 75.815 C 216.063 76.454,216.499 75.747,217.904 72.550 C 221.491 64.387,222.063 62.852,221.574 62.687 C 221.024 62.501,220.937 59.630,221.481 59.630 C 223.131 59.630,218.864 55.391,216.667 54.846 C 215.954 54.670,210.537 54.337,204.630 54.107 C 198.722 53.878,192.783 53.594,191.431 53.478 C 189.838 53.341,188.886 53.409,188.724 53.670 M164.815 82.625 C 157.023 87.441,156.296 88.041,156.296 89.671 C 156.296 90.939,156.810 91.017,158.333 89.979 C 158.944 89.563,160.074 88.892,160.843 88.488 L 162.242 87.753 164.663 89.106 C 170.073 92.132,172.305 95.616,173.786 103.351 L 174.928 109.313 174.043 112.157 C 173.318 114.485,172.787 115.403,171.116 117.224 C 169.993 118.447,168.647 119.947,168.125 120.557 C 167.603 121.167,166.860 121.847,166.474 122.067 C 166.088 122.288,165.111 124.079,164.302 126.049 L 162.832 129.629 165.169 135.463 L 167.507 141.296 168.176 149.389 C 168.543 153.840,168.962 160.049,169.105 163.186 L 169.366 168.889 167.831 168.889 C 166.116 168.889,165.806 169.462,167.229 170.002 C 168.784 170.594,181.674 171.104,195.161 171.108 L 207.914 171.111 215.261 173.151 L 222.608 175.191 226.822 172.771 C 232.273 169.641,231.959 170.371,230.534 164.143 L 229.321 158.842 230.567 147.942 L 231.814 137.041 226.555 126.335 L 221.296 115.628 211.296 106.238 C 190.550 86.756,187.485 84.049,182.742 81.014 L 178.261 78.148 175.149 78.155 L 172.037 78.162 164.815 82.625 M215.083 82.315 C 215.001 82.977,214.933 82.435,214.933 81.111 C 214.933 79.787,215.001 79.245,215.083 79.907 C 215.165 80.569,215.165 81.653,215.083 82.315 M211.960 185.719 L 204.846 188.807 196.589 188.981 C 187.183 189.179,176.096 188.523,169.833 187.397 C 167.601 186.996,165.669 186.793,165.538 186.945 C 165.069 187.489,164.075 194.371,163.518 200.926 C 162.067 218.024,160.429 232.773,156.851 260.974 L 155.200 273.985 155.875 275.972 C 156.538 277.922,156.537 277.997,155.791 280.045 L 155.030 282.132 155.937 285.974 C 156.631 288.918,157.172 290.290,158.253 291.852 C 159.028 292.972,160.020 294.406,160.457 295.038 C 161.123 296.002,162.116 296.501,166.607 298.131 L 171.963 300.074 177.937 299.944 L 183.911 299.815 187.604 297.747 C 191.132 295.771,191.408 295.524,193.807 292.191 L 196.319 288.704 196.183 285.833 C 196.109 284.255,196.109 282.963,196.184 282.963 C 196.259 282.963,197.523 283.866,198.993 284.969 L 201.667 286.975 207.214 287.984 L 212.761 288.994 217.770 288.347 L 222.778 287.700 224.524 285.794 C 225.484 284.746,227.045 282.407,227.994 280.596 L 229.718 277.303 229.457 273.275 C 229.204 269.366,229.225 269.198,230.170 267.585 L 231.144 265.923 232.418 242.719 C 233.270 227.204,233.775 213.993,233.944 202.848 L 234.196 186.179 232.931 186.465 C 230.988 186.903,230.362 186.785,227.389 185.420 C 224.416 184.054,221.954 183.173,220.185 182.840 C 219.323 182.678,217.478 183.324,211.960 185.719 "
            stroke="none" fill="{{primary_color}}" fill-rule="evenodd"></path>
    </g>
</svg>