<svg id="svg" version="1.1" xmlns="http://www.w3.org/2000/svg" xmlns:xlink="http://www.w3.org/1999/xlink" width="400"
    height="400" viewBox="0, 0, 400,400">
    <g id="svgg">
        <path id="path0"
            d="M273.586 33.235 C 271.206 35.835,268.820 38.630,268.283 39.444 C 266.577 42.037,264.387 44.035,259.444 47.509 C 256.757 49.398,253.233 52.299,251.469 54.076 L 248.309 57.259 246.850 62.019 C 246.048 64.636,245.171 66.999,244.900 67.269 C 243.933 68.236,245.065 69.050,249.880 70.848 C 259.138 74.305,258.293 73.802,263.195 78.776 C 268.340 83.997,267.823 83.773,270.034 81.745 C 279.310 73.235,282.227 63.153,280.872 44.280 C 280.408 37.827,278.990 29.680,278.175 28.791 C 278.032 28.635,275.967 30.635,273.586 33.235 M234.630 73.002 L 232.037 74.089 230.094 79.730 C 228.386 84.688,226.424 92.473,226.790 92.839 C 226.861 92.911,228.055 91.260,229.442 89.170 C 230.828 87.080,232.105 85.315,232.278 85.247 C 232.451 85.179,232.592 84.512,232.591 83.765 C 232.588 82.171,234.515 77.121,235.935 75.000 C 238.293 71.479,238.286 71.469,234.630 73.002 M241.068 73.706 C 237.665 75.694,233.387 91.401,236.471 90.586 C 238.321 90.096,244.719 88.532,245.559 88.364 C 246.076 88.261,246.784 87.679,247.154 87.052 C 247.520 86.433,248.036 85.926,248.300 85.926 C 249.106 85.926,252.841 76.679,252.197 76.278 C 249.826 74.800,242.208 73.040,241.068 73.706 M254.580 82.768 C 253.456 85.105,252.643 87.189,252.773 87.400 C 253.110 87.945,258.959 91.756,260.158 92.212 C 261.662 92.784,261.702 92.756,262.604 90.463 C 263.065 89.292,263.743 88.013,264.110 87.622 C 264.917 86.760,264.174 85.639,259.855 81.204 C 256.597 77.857,256.998 77.738,254.580 82.768 M243.066 90.698 C 237.073 91.980,237.548 91.396,233.857 102.037 C 232.313 106.487,232.000 106.015,238.394 108.891 C 242.934 110.934,252.417 115.868,254.120 117.074 L 255.093 117.762 257.353 116.244 C 258.959 115.166,259.747 114.356,260.076 113.448 C 260.417 112.504,261.389 111.547,263.788 109.794 C 267.647 106.972,267.559 107.563,264.844 102.662 C 263.638 100.485,262.542 98.004,262.408 97.149 C 262.196 95.798,262.000 95.540,260.919 95.183 C 260.235 94.957,258.206 93.849,256.412 92.721 C 250.644 89.095,250.592 89.087,243.066 90.698 M228.722 95.294 C 226.588 99.538,226.263 100.444,226.366 101.868 L 226.487 103.519 227.122 102.109 C 227.471 101.334,227.970 99.669,228.230 98.409 C 228.548 96.871,229.220 95.348,230.278 93.771 C 231.795 91.508,232.212 90.370,231.525 90.370 C 231.345 90.370,230.084 92.586,228.722 95.294 "
            stroke="none" fill="#04fc04" fill-rule="evenodd"></path>
    </g>
</svg>