<svg id="svg" version="1.1" xmlns="http://www.w3.org/2000/svg" xmlns:xlink="http://www.w3.org/1999/xlink" width="400"
    height="400" viewBox="0, 0, 400,400">
    <g id="svgg">
        <path id="path0"
            d="M273.586 33.235 C 271.206 35.835,268.820 38.630,268.283 39.444 C 266.577 42.037,264.387 44.035,259.444 47.509 C 256.765 49.392,253.233 52.299,251.481 54.064 L 248.333 57.235 246.766 62.262 L 245.198 67.289 243.627 67.996 C 242.763 68.385,241.302 69.293,240.380 70.014 C 239.458 70.734,237.204 71.948,235.370 72.712 L 232.037 74.100 230.099 79.735 C 227.394 87.597,226.301 93.081,226.298 98.796 L 226.296 103.333 227.197 103.333 C 228.220 103.333,228.364 103.003,228.729 99.815 C 228.870 98.593,229.296 96.974,229.677 96.218 C 230.059 95.463,230.370 94.518,230.370 94.118 C 230.370 93.719,231.255 92.338,232.337 91.048 C 233.436 89.738,234.769 87.582,235.359 86.161 C 236.832 82.616,237.858 81.481,239.590 81.481 C 241.111 81.481,243.509 83.474,243.191 84.475 C 243.100 84.764,242.930 85.437,242.813 85.972 C 242.666 86.648,241.886 87.410,240.251 88.476 C 236.649 90.822,235.566 92.252,236.540 93.374 C 237.268 94.212,236.666 95.606,235.043 96.844 C 234.002 97.638,233.662 98.231,233.329 99.833 C 232.446 104.091,232.709 104.415,239.630 107.557 C 247.808 111.271,254.305 115.153,254.663 116.541 L 255.000 117.848 257.209 116.342 C 258.626 115.376,259.688 114.309,260.172 113.363 C 260.680 112.369,261.921 111.160,263.981 109.652 C 267.622 106.987,267.553 107.550,264.841 102.662 C 260.255 94.397,260.803 90.690,267.578 84.144 C 277.744 74.323,279.651 70.663,280.692 58.971 C 281.660 48.098,280.237 31.040,278.175 28.791 C 278.032 28.635,275.967 30.635,273.586 33.235 "
            stroke="none" fill="#04fc04" fill-rule="evenodd"></path>
    </g>
</svg>