<svg id="svg" version="1.1" xmlns="http://www.w3.org/2000/svg" xmlns:xlink="http://www.w3.org/1999/xlink" width="400"
    height="400" viewBox="0, 0, 400,400">
    <g id="svgg">
        <path id="path0"
            d="M273.586 33.235 C 271.206 35.835,268.820 38.630,268.283 39.444 C 266.577 42.037,264.387 44.035,259.444 47.509 C 256.765 49.392,253.233 52.299,251.481 54.064 L 248.333 57.235 246.766 62.262 L 245.198 67.289 243.627 67.996 C 242.763 68.385,241.302 69.293,240.380 70.014 C 239.458 70.734,237.204 71.948,235.370 72.712 L 232.037 74.101 230.235 79.292 C 228.038 85.622,228.189 85.995,230.991 81.160 C 233.336 77.113,233.262 77.188,234.225 77.892 C 234.842 78.343,234.679 78.764,231.877 83.961 C 227.003 92.997,226.296 95.051,226.296 100.180 C 226.296 102.525,226.421 104.440,226.574 104.435 C 226.727 104.429,228.583 101.583,230.700 98.109 C 234.176 92.403,235.028 91.297,239.530 86.646 L 244.512 81.498 245.589 82.055 C 246.952 82.759,247.182 82.069,243.397 88.654 C 240.992 92.839,239.605 95.801,238.152 99.857 C 237.066 102.889,235.299 107.787,234.225 110.741 C 233.151 113.694,232.386 116.219,232.525 116.351 C 232.970 116.772,239.758 118.911,241.368 119.136 C 243.145 119.386,241.972 119.983,255.463 111.961 C 260.403 109.024,264.444 106.486,264.444 106.321 C 264.444 106.156,264.024 104.375,263.510 102.362 C 262.746 99.371,260.741 90.256,260.741 89.776 C 260.741 89.705,261.166 89.810,261.686 90.007 C 262.543 90.333,262.680 90.252,263.143 89.143 C 263.425 88.470,265.451 86.189,267.646 84.075 C 277.706 74.385,279.653 70.639,280.692 58.971 C 281.660 48.098,280.237 31.040,278.175 28.791 C 278.032 28.635,275.967 30.635,273.586 33.235 "
            stroke="none" fill="#04fc04" fill-rule="evenodd"></path>
    </g>
</svg>