<svg id="svg" version="1.1" xmlns="http://www.w3.org/2000/svg" xmlns:xlink="http://www.w3.org/1999/xlink" width="400"
    height="400" viewBox="0, 0, 400,400">
    <g id="svgg">
        <path id="path0"
            d="M273.586 33.235 C 271.206 35.835,268.820 38.630,268.283 39.444 C 266.577 42.037,264.387 44.035,259.444 47.509 C 256.765 49.392,253.233 52.299,251.481 54.064 L 248.333 57.235 246.766 62.262 L 245.198 67.289 243.627 67.996 C 242.763 68.385,241.260 69.333,240.286 70.102 C 239.312 70.871,238.090 71.663,237.569 71.861 C 236.318 72.337,236.598 72.684,239.553 74.320 C 243.092 76.278,252.169 82.405,253.704 83.871 C 255.408 85.499,261.838 90.370,262.283 90.370 C 262.474 90.370,262.861 89.819,263.143 89.145 C 263.424 88.470,265.451 86.189,267.646 84.075 C 277.706 74.385,279.653 70.639,280.692 58.971 C 281.660 48.098,280.237 31.040,278.175 28.791 C 278.032 28.635,275.967 30.635,273.586 33.235 M235.182 75.278 C 233.010 78.845,231.063 84.863,231.148 87.745 C 231.231 90.544,231.221 90.577,228.694 95.614 L 226.157 100.673 228.079 105.061 C 229.135 107.475,230.000 109.617,230.000 109.823 C 230.000 110.028,230.330 110.813,230.734 111.566 C 231.138 112.319,231.572 113.586,231.699 114.380 C 232.029 116.442,232.000 116.421,236.482 117.908 C 245.939 121.045,258.167 118.726,260.082 113.432 C 260.416 112.507,261.408 111.534,263.788 109.794 C 267.649 106.970,267.563 107.561,264.825 102.662 C 262.825 99.082,262.569 98.372,262.145 95.234 L 261.676 91.764 257.968 88.904 C 252.380 84.594,252.407 84.609,251.296 85.336 C 250.279 86.003,250.169 85.884,250.766 84.767 C 251.385 83.612,247.001 80.076,239.785 75.909 C 236.021 73.735,236.114 73.748,235.182 75.278 "
            stroke="none" fill="#04fc04" fill-rule="evenodd"></path>
    </g>
</svg>