<svg id="svg" version="1.1" xmlns="http://www.w3.org/2000/svg" xmlns:xlink="http://www.w3.org/1999/xlink" width="400"
    height="400" viewBox="0, 0, 400,400">
    <g id="svgg">
        <path id="path0"
            d="M210.674 45.492 C 208.650 46.215,208.074 46.667,209.176 46.667 C 210.343 46.667,210.489 47.222,210.003 49.799 L 209.561 52.142 206.725 52.376 C 205.165 52.506,203.072 52.709,202.073 52.830 L 200.257 53.048 200.479 51.174 L 200.701 49.300 199.147 49.187 L 197.593 49.074 197.706 47.651 C 197.792 46.562,197.705 46.294,197.335 46.510 C 193.783 48.590,188.181 52.344,188.025 52.750 C 187.776 53.400,189.447 53.548,202.963 54.076 C 208.361 54.287,213.491 54.537,214.362 54.632 C 215.773 54.785,215.910 54.733,215.614 54.161 C 215.431 53.808,215.164 52.289,215.021 50.787 L 214.761 48.056 216.177 48.307 C 216.955 48.445,217.918 48.654,218.316 48.772 C 219.227 49.042,218.819 48.627,215.970 46.384 C 213.786 44.665,213.244 44.573,210.674 45.492 M180.000 77.832 C 180.000 78.006,180.312 78.148,180.693 78.148 C 183.774 78.148,201.910 93.113,211.536 103.597 L 218.333 111.001 223.587 120.593 L 228.840 130.185 229.415 134.259 C 231.107 146.230,231.182 147.211,231.124 156.388 L 231.066 165.554 232.663 167.612 C 233.870 169.168,234.440 169.627,235.000 169.494 C 235.407 169.398,237.691 168.913,240.074 168.418 C 244.272 167.545,245.156 167.184,247.661 165.321 L 248.841 164.443 247.784 161.314 C 247.024 159.066,245.895 156.956,243.771 153.815 L 240.815 149.444 239.630 141.667 C 238.442 133.863,235.788 122.101,232.122 108.391 L 230.156 101.041 225.060 95.717 C 220.369 90.817,213.073 84.815,211.807 84.815 C 211.581 84.815,210.165 85.391,208.661 86.096 L 205.926 87.376 203.611 86.331 C 202.338 85.756,200.213 84.779,198.889 84.161 C 188.358 79.239,180.000 76.439,180.000 77.832 M163.733 90.209 C 163.095 90.934,161.407 93.858,159.980 96.706 C 158.554 99.553,157.230 101.786,157.039 101.668 C 156.156 101.122,146.670 124.205,143.342 135.000 C 140.669 143.667,138.101 150.093,135.755 153.984 C 133.921 157.028,133.741 157.536,133.320 160.882 C 132.774 165.221,132.444 164.859,138.065 166.092 C 141.069 166.750,143.811 167.645,146.147 168.729 C 148.091 169.632,149.823 170.370,149.996 170.370 C 150.697 170.370,152.568 163.364,153.161 158.519 L 153.772 153.519 157.946 146.111 C 162.780 137.533,164.873 133.175,164.556 132.349 C 164.271 131.607,167.765 124.444,168.411 124.444 C 168.674 124.444,168.889 124.700,168.889 125.012 C 168.889 126.141,169.904 125.913,172.904 124.109 C 174.585 123.099,176.139 122.213,176.357 122.140 C 176.582 122.065,177.113 118.745,177.589 114.430 L 178.426 106.852 176.979 100.741 L 175.533 94.630 173.107 92.638 C 171.427 91.259,169.882 90.377,168.083 89.768 C 164.837 88.670,165.108 88.642,163.733 90.209 M251.156 178.009 C 250.671 178.349,248.878 179.077,247.171 179.626 C 243.188 180.907,243.299 180.558,245.680 184.331 C 247.591 187.359,247.768 187.831,248.148 190.926 C 248.941 197.386,251.159 203.644,253.926 207.229 L 256.336 210.351 258.075 210.121 C 261.250 209.702,261.306 209.646,262.040 206.147 C 262.617 203.398,262.655 202.365,262.325 198.369 L 261.945 193.760 258.669 189.010 C 256.186 185.410,255.109 183.452,254.225 180.926 C 252.992 177.406,252.577 177.012,251.156 178.009 M130.573 183.056 C 130.493 183.310,130.156 185.852,129.823 188.704 C 129.386 192.453,128.652 195.927,127.175 201.247 L 125.131 208.606 126.088 214.296 L 127.045 219.987 129.508 223.790 C 130.862 225.881,132.094 227.734,132.245 227.908 C 132.570 228.281,139.250 227.455,139.879 226.963 C 140.118 226.776,141.058 224.841,141.969 222.664 L 143.625 218.704 143.879 212.222 C 144.128 205.884,144.108 205.627,142.993 200.576 C 141.574 194.154,141.559 194.650,143.331 189.683 L 144.809 185.537 143.979 185.186 C 142.575 184.593,138.502 183.654,135.000 183.117 C 130.886 182.486,130.751 182.484,130.573 183.056 M198.148 288.098 C 198.148 289.496,198.887 297.288,199.790 305.413 C 201.090 317.115,201.486 322.196,201.693 329.861 L 201.954 339.537 205.620 339.954 C 207.636 340.183,209.707 340.370,210.221 340.370 C 210.892 340.370,212.811 341.814,217.029 345.492 L 222.902 350.613 227.099 351.944 C 229.408 352.677,231.968 353.471,232.789 353.709 L 234.281 354.142 237.320 351.053 C 241.889 346.407,242.019 346.713,233.267 341.474 L 226.164 337.222 221.623 329.422 L 217.082 321.622 218.353 306.089 C 219.853 287.753,219.906 286.109,218.981 286.471 C 214.743 288.135,203.204 288.172,200.370 286.530 C 198.122 285.228,198.148 285.209,198.148 288.098 M161.688 298.217 C 160.824 300.870,160.913 302.289,162.835 316.481 C 164.866 331.478,165.239 337.330,164.430 341.524 C 163.358 347.081,163.319 352.589,164.336 354.597 C 166.279 358.430,170.001 363.681,174.993 369.630 C 177.814 372.991,180.176 375.809,180.243 375.892 C 180.430 376.125,194.954 372.927,195.335 372.570 C 195.917 372.025,194.228 368.353,191.562 364.367 C 190.161 362.271,186.655 356.707,183.772 352.003 L 178.530 343.450 178.287 339.744 C 177.729 331.223,179.129 309.501,180.742 301.662 C 181.584 297.568,181.576 297.523,180.127 298.255 C 177.163 299.751,164.826 299.572,162.276 297.996 C 162.040 297.850,161.775 297.950,161.688 298.217 "
            stroke="none" fill="{{human_skin_color}}" fill-rule="evenodd"></path>
        <path id="path1"
            d="M197.714 24.360 C 195.424 26.018,193.480 27.729,193.093 28.426 C 192.457 29.570,192.314 29.631,190.194 29.658 C 188.967 29.674,187.630 29.764,187.222 29.858 C 186.815 29.952,185.585 30.036,184.488 30.045 L 182.496 30.060 182.752 33.553 L 183.008 37.045 181.847 37.689 C 179.335 39.082,179.377 39.009,180.056 40.842 C 180.438 41.870,180.543 42.679,180.338 43.002 C 179.733 43.958,179.961 50.644,180.701 53.642 C 181.087 55.204,181.507 56.940,181.634 57.500 C 181.762 58.060,182.093 58.519,182.371 58.519 C 182.958 58.519,187.430 54.030,187.933 52.936 C 188.197 52.361,193.312 48.865,197.335 46.510 C 197.705 46.294,197.792 46.562,197.706 47.651 L 197.593 49.074 199.300 49.185 C 200.526 49.264,201.623 49.020,203.189 48.320 C 205.927 47.096,212.550 44.815,213.365 44.815 C 213.892 44.815,216.941 46.976,218.452 48.421 C 219.739 49.651,220.024 48.822,219.223 46.182 C 218.201 42.820,217.751 40.051,218.108 39.332 C 219.483 36.568,220.277 33.038,219.578 32.798 C 218.955 32.582,215.867 32.283,213.910 32.248 C 212.633 32.225,212.201 31.961,210.465 30.140 C 208.494 28.072,208.468 28.059,206.654 28.233 L 204.827 28.409 204.121 26.519 C 203.733 25.480,203.204 23.921,202.946 23.056 C 202.335 21.011,202.340 21.010,197.714 24.360 "
            stroke="none" fill="{{human_hair_color}}" fill-rule="evenodd"></path>
        <path id="path2"
            d="M203.426 48.193 C 201.580 49.042,201.389 49.941,202.761 51.313 C 204.911 53.463,207.760 50.883,206.283 48.124 C 205.818 47.254,205.450 47.263,203.426 48.193 M215.909 50.601 C 215.424 51.876,215.817 53.861,216.715 54.673 C 218.313 56.120,219.381 52.668,217.991 50.546 C 217.212 49.358,216.373 49.380,215.909 50.601 "
            stroke="none" fill="{{human_eye_color}}" fill-rule="evenodd"></path>
        <path id="path3"
            d="M185.393 55.928 C 183.663 57.706,182.613 58.513,182.181 58.400 C 181.802 58.301,181.133 58.657,180.548 59.267 L 179.557 60.302 180.519 63.646 C 181.636 67.530,181.679 68.579,180.912 73.311 C 180.228 77.527,180.299 77.778,182.173 77.778 C 184.005 77.778,190.710 80.338,198.889 84.161 C 200.213 84.779,202.339 85.757,203.613 86.332 L 205.930 87.378 209.759 85.582 L 213.587 83.785 213.820 80.227 C 214.034 76.978,214.228 76.276,216.060 72.131 C 219.892 63.460,220.000 63.144,220.000 60.595 L 220.000 58.206 218.075 56.522 C 215.768 54.504,216.354 54.599,203.148 54.085 C 197.648 53.870,191.981 53.603,190.556 53.492 L 187.963 53.289 185.393 55.928 M174.074 80.049 C 172.782 80.260,169.400 81.637,164.826 83.816 L 157.614 87.250 156.662 90.569 C 155.739 93.789,155.725 94.000,156.185 97.570 C 156.850 102.733,156.952 102.704,160.131 96.427 C 161.665 93.398,163.420 90.441,164.031 89.856 L 165.142 88.792 167.903 89.713 C 169.896 90.377,171.342 91.190,173.099 92.632 L 175.533 94.630 176.979 100.741 L 178.426 106.852 177.589 114.430 C 177.113 118.745,176.582 122.065,176.357 122.140 C 176.139 122.213,174.585 123.099,172.904 124.109 C 169.904 125.913,168.889 126.141,168.889 125.012 C 168.889 123.528,167.769 124.779,166.149 128.071 L 164.365 131.697 165.517 135.430 C 167.593 142.158,171.846 160.649,171.851 162.970 C 171.851 163.279,170.769 164.763,169.444 166.268 C 166.763 169.316,166.586 169.807,168.044 170.172 C 170.023 170.669,181.874 171.093,194.045 171.102 L 206.422 171.111 211.822 172.615 C 214.792 173.442,217.989 174.342,218.926 174.615 L 220.629 175.112 225.407 172.542 C 228.035 171.128,230.575 169.873,231.052 169.752 C 231.791 169.565,231.876 169.389,231.628 168.562 C 231.467 168.029,231.307 163.249,231.272 157.940 C 231.228 151.472,230.993 146.461,230.557 142.754 L 229.907 137.222 225.998 129.815 C 219.327 117.173,215.394 111.287,207.864 102.672 L 201.296 95.159 193.519 89.488 C 180.576 80.050,178.937 79.255,174.074 80.049 M213.279 185.911 L 207.114 188.425 197.168 188.758 C 186.310 189.121,176.878 188.694,170.270 187.538 C 168.058 187.151,166.527 187.039,166.333 187.249 C 166.159 187.438,165.073 195.176,163.920 204.444 C 162.701 214.254,160.759 227.488,159.274 236.111 C 156.949 249.618,156.688 251.662,156.320 259.259 C 156.099 263.843,155.819 269.509,155.698 271.852 C 155.577 274.194,155.108 277.861,154.655 280.000 C 153.757 284.244,153.708 283.672,155.570 290.761 C 155.825 291.733,156.798 292.887,159.281 295.165 L 162.646 298.251 166.416 298.941 C 173.219 300.186,177.598 299.497,184.827 296.043 L 190.581 293.295 192.883 289.669 C 194.149 287.674,195.185 285.693,195.185 285.265 C 195.185 283.955,195.714 284.028,198.933 285.786 L 202.037 287.481 207.037 287.668 C 218.399 288.093,223.722 285.622,227.182 278.319 L 228.838 274.823 228.642 270.838 C 228.483 267.607,228.593 266.202,229.225 263.421 C 229.925 260.337,230.002 258.877,229.986 248.977 C 229.976 242.919,230.139 234.630,230.348 230.556 C 230.556 226.481,230.730 219.667,230.734 215.411 C 230.740 208.740,230.896 206.620,231.868 200.009 C 233.213 190.863,233.272 186.034,232.037 186.226 C 228.079 186.841,227.698 186.785,223.935 185.035 C 219.523 182.982,220.702 182.885,213.279 185.911 "
            stroke="none" fill="{{primary_color}}" fill-rule="evenodd"></path>
    </g>
</svg>