<svg id="svg" version="1.1" xmlns="http://www.w3.org/2000/svg" xmlns:xlink="http://www.w3.org/1999/xlink" width="400"
    height="400" viewBox="0, 0, 400,400">
    <g id="svgg">
        <path id="path0"
            d="M219.378 45.331 C 216.858 46.190,216.125 46.667,217.324 46.667 C 218.491 46.667,218.637 47.222,218.151 49.799 L 217.709 52.142 214.873 52.376 C 213.313 52.506,211.220 52.709,210.221 52.830 L 208.405 53.048 208.627 51.174 L 208.849 49.300 207.295 49.187 L 205.741 49.074 205.854 47.651 C 205.940 46.562,205.853 46.294,205.483 46.513 C 201.843 48.662,196.319 52.369,196.168 52.764 C 195.925 53.397,197.678 53.551,211.111 54.076 C 216.509 54.287,221.639 54.537,222.510 54.632 C 223.921 54.785,224.058 54.733,223.762 54.161 C 223.579 53.808,223.314 52.310,223.174 50.833 C 222.891 47.861,222.834 47.921,225.360 48.507 C 226.169 48.694,226.882 48.797,226.944 48.735 C 227.038 48.641,224.319 46.462,222.235 44.961 C 221.805 44.652,221.108 44.742,219.378 45.331 M190.041 78.171 C 195.821 82.382,198.351 84.905,205.344 93.436 C 209.314 98.279,216.778 106.701,221.929 112.150 C 227.081 117.600,234.205 125.220,237.761 129.085 C 241.317 132.949,244.900 136.588,245.724 137.170 C 248.521 139.147,255.083 153.884,257.457 163.519 C 257.909 165.352,258.541 167.057,258.862 167.309 C 259.497 167.807,262.154 167.818,262.459 167.324 C 262.563 167.155,263.969 166.353,265.584 165.541 C 268.926 163.861,268.878 163.981,267.952 159.579 C 267.441 157.146,267.085 156.487,264.244 152.704 L 261.101 148.521 261.523 139.720 L 261.944 130.919 258.851 123.330 C 255.998 116.330,255.426 115.249,251.490 109.406 L 247.222 103.070 240.017 97.039 C 233.131 91.273,232.567 90.887,227.240 88.295 C 224.175 86.804,221.333 85.342,220.926 85.047 C 220.256 84.561,219.889 84.648,217.078 85.958 L 213.970 87.407 209.856 85.436 C 207.592 84.353,204.824 83.082,203.704 82.612 C 195.430 79.146,192.545 78.057,190.945 77.795 L 189.113 77.495 190.041 78.171 M165.113 88.637 C 163.546 89.507,161.902 90.544,161.460 90.943 C 161.019 91.341,160.367 91.667,160.013 91.667 C 159.659 91.667,157.009 93.833,154.123 96.481 L 148.878 101.296 141.869 112.040 C 138.014 117.950,134.767 123.033,134.652 123.337 C 134.538 123.640,133.625 127.652,132.623 132.252 C 130.379 142.549,128.339 148.094,125.295 152.166 C 122.854 155.432,122.764 155.713,122.426 161.121 L 122.161 165.370 128.766 166.796 C 132.512 167.605,137.590 169.018,140.500 170.061 C 143.322 171.073,145.693 171.838,145.770 171.761 C 145.846 171.685,146.579 170.171,147.399 168.397 L 148.889 165.172 148.889 159.592 L 148.889 154.011 151.792 150.246 C 157.276 143.135,162.006 135.647,161.630 134.669 C 160.964 132.931,164.470 130.252,166.864 130.670 C 167.075 130.706,168.907 129.394,170.935 127.752 L 174.622 124.768 175.273 125.572 C 178.780 129.903,181.132 111.207,178.612 99.036 C 177.251 92.464,174.960 89.289,170.611 87.950 C 169.766 87.690,168.824 87.383,168.519 87.267 C 168.213 87.151,166.681 87.768,165.113 88.637 M270.228 180.547 C 269.843 180.841,267.968 181.442,266.061 181.882 C 262.174 182.781,261.820 183.268,263.292 185.697 C 263.682 186.341,264.197 188.327,264.455 190.185 C 265.281 196.143,267.830 202.093,271.142 205.798 L 273.889 208.872 276.481 208.653 C 280.654 208.301,281.824 205.383,281.005 197.375 L 280.531 192.749 276.655 188.052 C 273.859 184.665,272.666 182.913,272.376 181.770 C 271.942 180.058,271.326 179.707,270.228 180.547 M120.236 189.867 C 120.106 190.812,120.000 192.206,120.000 192.965 C 120.000 193.739,118.769 197.824,117.197 202.265 L 114.394 210.185 115.404 215.926 L 116.414 221.667 119.770 226.204 C 121.616 228.699,123.381 230.735,123.692 230.729 C 124.767 230.706,132.263 229.712,132.370 229.578 C 132.430 229.505,133.492 227.528,134.731 225.185 L 136.983 220.926 137.222 213.889 L 137.461 206.852 136.174 201.121 L 134.886 195.390 135.776 193.633 C 136.530 192.146,136.916 190.746,136.574 190.739 C 136.523 190.737,134.565 190.392,132.222 189.971 C 126.144 188.879,121.762 188.165,121.069 188.156 C 120.637 188.150,120.406 188.624,120.236 189.867 M207.224 283.411 C 206.980 287.690,207.092 288.874,209.077 303.148 C 211.057 317.377,211.202 318.922,211.388 327.677 C 211.562 335.827,211.663 337.044,212.182 337.204 C 212.510 337.305,215.143 337.801,218.033 338.305 L 223.288 339.222 230.515 344.878 L 237.742 350.533 244.665 352.642 C 252.741 355.102,251.588 355.306,255.648 350.697 C 260.451 345.244,260.788 345.881,250.153 340.314 L 241.416 335.741 235.956 327.963 C 232.953 323.685,230.396 320.011,230.273 319.798 C 230.150 319.585,230.704 312.918,231.504 304.983 C 232.896 291.182,233.285 284.419,232.685 284.466 C 232.532 284.478,230.505 284.700,228.181 284.959 C 224.064 285.418,223.819 285.403,218.793 284.387 C 213.383 283.293,213.585 283.386,208.649 279.724 L 207.484 278.859 207.224 283.411 M161.581 298.649 L 160.527 303.148 162.695 315.926 C 165.194 330.655,165.823 338.170,164.941 342.738 C 163.092 352.310,163.482 354.341,168.786 362.735 C 171.070 366.350,183.059 381.852,184.169 382.626 C 184.517 382.869,202.499 378.884,203.252 378.397 C 204.051 377.880,200.843 372.774,188.891 355.538 C 185.706 350.945,182.968 346.974,182.807 346.713 C 180.772 343.421,182.076 315.093,184.795 303.519 C 185.226 301.685,185.655 299.935,185.748 299.630 C 185.895 299.147,185.075 299.091,179.529 299.202 L 173.142 299.329 168.701 297.552 C 166.258 296.575,163.894 295.409,163.447 294.962 L 162.635 294.150 161.581 298.649 "
            stroke="none" fill="{{human_skin_color}}" fill-rule="evenodd"></path>
        <path id="path1"
            d="M205.838 24.422 C 203.678 26.049,201.625 27.863,201.276 28.453 C 200.625 29.556,196.954 30.182,192.078 30.022 L 190.637 29.975 190.896 33.502 L 191.155 37.029 189.466 38.049 C 187.585 39.185,187.535 39.330,188.359 41.300 C 188.771 42.286,188.825 42.805,188.544 43.086 C 187.865 43.764,188.065 50.633,188.847 53.526 C 189.231 54.948,189.656 56.736,189.790 57.500 C 189.924 58.264,190.164 58.889,190.323 58.889 C 190.748 58.889,196.296 53.114,196.296 52.672 C 196.296 52.382,201.854 48.655,205.483 46.513 C 205.853 46.294,205.940 46.562,205.854 47.651 L 205.741 49.074 207.448 49.185 C 208.680 49.265,209.764 49.022,211.337 48.312 C 212.537 47.772,215.367 46.700,217.627 45.932 L 221.735 44.534 224.591 46.754 C 227.794 49.244,228.128 49.243,227.450 46.747 C 225.860 40.901,225.844 40.460,227.090 36.959 C 228.603 32.711,228.609 32.722,224.192 32.403 L 220.556 32.139 218.559 30.098 C 216.583 28.077,216.546 28.059,214.795 28.267 L 213.027 28.476 211.791 25.102 C 210.242 20.873,210.512 20.903,205.838 24.422 "
            stroke="none" fill="{{human_hair_color}}" fill-rule="evenodd"></path>
        <path id="path2"
            d="M193.232 56.187 C 191.220 58.204,190.264 58.934,190.061 58.610 C 189.849 58.272,189.491 58.438,188.738 59.224 L 187.705 60.302 188.667 63.646 C 189.785 67.532,189.827 68.577,189.057 73.327 C 188.419 77.261,188.622 77.778,190.802 77.778 C 192.333 77.778,201.566 81.494,209.862 85.449 L 213.984 87.414 217.859 85.604 L 221.734 83.795 221.968 80.232 C 222.182 76.977,222.375 76.277,224.208 72.131 C 228.040 63.460,228.148 63.144,228.148 60.595 L 228.148 58.206 226.224 56.522 C 223.916 54.504,224.502 54.599,211.296 54.085 C 205.796 53.870,200.130 53.606,198.704 53.498 L 196.111 53.301 193.232 56.187 M181.564 77.832 C 179.770 78.089,177.357 79.078,171.001 82.162 L 162.763 86.158 161.225 88.727 C 159.548 91.528,159.628 92.677,161.386 91.051 C 161.948 90.532,163.660 89.426,165.192 88.594 L 167.976 87.080 170.096 87.779 C 175.094 89.428,177.199 92.211,178.612 99.036 C 181.132 111.207,178.780 129.903,175.273 125.572 L 174.622 124.768 170.935 127.752 C 168.907 129.394,167.075 130.706,166.864 130.670 C 165.271 130.392,163.243 131.264,162.352 132.610 L 161.408 134.037 163.189 139.333 L 164.971 144.630 165.051 154.781 L 165.131 164.933 166.441 166.243 L 167.751 167.554 172.672 167.825 C 187.888 168.665,197.904 168.799,214.281 168.383 L 226.895 168.063 232.244 169.572 C 235.186 170.402,239.696 171.603,242.267 172.241 L 246.942 173.401 252.267 170.563 C 255.196 169.001,257.750 167.570,257.943 167.381 C 258.935 166.414,252.229 147.029,248.849 141.089 C 247.270 138.314,247.184 138.237,239.674 132.843 L 232.093 127.397 223.389 117.310 C 218.602 111.762,210.543 102.306,205.480 96.296 C 196.718 85.897,196.029 85.179,191.193 81.392 C 185.667 77.066,186.015 77.194,181.564 77.832 M232.963 186.898 L 220.926 190.765 209.630 190.565 C 195.451 190.314,177.305 189.158,170.661 188.082 C 164.669 187.111,165.340 186.730,164.640 191.501 C 164.328 193.629,163.333 198.954,162.430 203.333 C 160.512 212.630,159.527 223.493,158.884 242.407 C 158.676 248.519,158.255 257.852,157.948 263.148 C 157.412 272.389,157.417 272.860,158.081 274.813 C 158.763 276.819,158.762 276.876,158.022 278.909 L 157.271 280.970 158.163 284.988 C 159.152 289.443,162.375 294.828,164.686 295.887 C 165.266 296.153,167.407 297.037,169.444 297.852 L 173.148 299.333 179.630 299.182 L 186.111 299.031 190.094 296.809 C 194.048 294.603,194.094 294.562,196.516 290.999 L 198.956 287.411 198.843 283.006 L 198.729 278.601 200.456 276.579 C 201.406 275.467,202.464 273.854,202.808 272.995 C 203.556 271.125,203.639 271.196,205.203 275.077 C 206.429 278.115,206.430 278.117,210.037 280.731 L 213.646 283.346 218.809 284.390 C 224.032 285.446,229.723 285.363,233.732 284.172 C 235.210 283.733,237.989 280.302,239.820 276.657 L 241.480 273.351 241.082 269.690 L 240.684 266.030 241.788 264.219 C 245.245 258.551,249.572 241.809,253.714 218.079 L 255.568 207.454 255.469 197.894 L 255.370 188.333 250.556 185.673 C 244.763 182.474,247.284 182.298,232.963 186.898 "
            stroke="none" fill="{{primary_color}}" fill-rule="evenodd"></path>
        <path id="path3"
            d="M211.732 48.115 C 209.679 49.028,209.586 49.127,209.789 50.185 C 210.464 53.704,214.815 53.226,214.815 49.632 C 214.815 47.194,214.336 46.958,211.732 48.115 M223.900 50.116 C 223.214 51.164,223.466 53.783,224.337 54.654 C 226.051 56.369,227.420 54.030,226.365 51.189 C 225.624 49.192,224.754 48.813,223.900 50.116 M260.000 169.444 C 260.000 170.361,260.167 171.111,260.370 171.111 C 260.574 171.111,260.741 170.361,260.741 169.444 C 260.741 168.528,260.574 167.778,260.370 167.778 C 260.167 167.778,260.000 168.528,260.000 169.444 "
            stroke="none" fill="{{human_eye_color}}" fill-rule="evenodd"></path>
    </g>
</svg>