<svg id="svg" version="1.1" xmlns="http://www.w3.org/2000/svg" xmlns:xlink="http://www.w3.org/1999/xlink" width="400"
    height="400" viewBox="0, 0, 400,400">
    <g id="svgg">
        <path id="path0"
            d="M212.230 44.217 L 209.090 44.630 213.526 45.693 C 218.924 46.987,218.716 46.805,218.161 49.747 L 217.709 52.142 214.873 52.376 C 213.313 52.506,211.248 52.706,210.285 52.821 L 208.532 53.031 208.767 48.923 C 208.896 46.663,208.878 44.815,208.727 44.815 C 208.170 44.815,196.030 51.863,195.413 52.545 C 194.665 53.373,195.181 53.422,211.296 54.078 C 216.389 54.285,221.349 54.528,222.319 54.618 C 223.887 54.763,224.046 54.711,223.756 54.150 C 223.576 53.803,223.314 52.310,223.174 50.833 C 222.892 47.869,222.842 47.923,225.304 48.494 L 226.720 48.823 224.431 46.726 C 221.001 43.584,219.456 43.267,212.230 44.217 M190.041 78.171 C 195.821 82.382,198.351 84.905,205.344 93.436 C 209.314 98.279,216.778 106.701,221.929 112.150 C 227.081 117.600,234.205 125.220,237.761 129.085 C 241.317 132.949,244.900 136.588,245.724 137.170 C 248.521 139.147,255.083 153.884,257.457 163.519 C 257.909 165.352,258.541 167.057,258.862 167.309 C 259.497 167.807,262.154 167.818,262.459 167.324 C 262.563 167.155,263.969 166.353,265.584 165.541 C 268.926 163.861,268.878 163.981,267.952 159.579 C 267.441 157.146,267.085 156.487,264.244 152.704 L 261.101 148.521 261.523 139.720 L 261.944 130.919 258.851 123.330 C 255.998 116.330,255.426 115.249,251.490 109.406 L 247.222 103.070 240.017 97.039 C 233.131 91.273,232.567 90.887,227.240 88.295 C 224.175 86.804,221.333 85.342,220.926 85.047 C 220.256 84.561,219.889 84.648,217.078 85.958 L 213.970 87.407 209.856 85.436 C 207.592 84.353,204.824 83.082,203.704 82.612 C 195.430 79.146,192.545 78.057,190.945 77.795 L 189.113 77.495 190.041 78.171 M165.113 88.637 C 163.546 89.507,161.902 90.544,161.460 90.943 C 161.019 91.341,160.367 91.667,160.013 91.667 C 159.659 91.667,157.009 93.833,154.123 96.481 L 148.878 101.296 141.869 112.040 C 138.014 117.950,134.767 123.033,134.652 123.337 C 134.538 123.640,133.625 127.652,132.623 132.252 C 130.379 142.549,128.339 148.094,125.295 152.166 C 122.854 155.432,122.764 155.713,122.426 161.121 L 122.161 165.370 128.766 166.796 C 132.512 167.605,137.590 169.018,140.500 170.061 C 143.322 171.073,145.693 171.838,145.770 171.761 C 145.846 171.685,146.579 170.171,147.399 168.397 L 148.889 165.172 148.889 159.592 L 148.889 154.011 151.792 150.246 C 157.276 143.135,162.006 135.647,161.630 134.669 C 160.964 132.931,164.470 130.252,166.864 130.670 C 167.075 130.706,168.907 129.394,170.935 127.752 L 174.622 124.768 175.273 125.572 C 178.780 129.903,181.132 111.207,178.612 99.036 C 177.251 92.464,174.960 89.289,170.611 87.950 C 169.766 87.690,168.824 87.383,168.519 87.267 C 168.213 87.151,166.681 87.768,165.113 88.637 M270.228 180.547 C 269.843 180.841,267.968 181.442,266.061 181.882 C 262.174 182.781,261.820 183.268,263.292 185.697 C 263.682 186.341,264.197 188.327,264.455 190.185 C 265.281 196.143,267.830 202.093,271.142 205.798 L 273.889 208.872 276.481 208.653 C 280.654 208.301,281.824 205.383,281.005 197.375 L 280.531 192.749 276.655 188.052 C 273.859 184.665,272.666 182.913,272.376 181.770 C 271.942 180.058,271.326 179.707,270.228 180.547 M120.236 189.867 C 120.106 190.812,120.000 192.206,120.000 192.965 C 120.000 193.739,118.769 197.824,117.197 202.265 L 114.394 210.185 115.404 215.926 L 116.414 221.667 119.770 226.204 C 121.616 228.699,123.381 230.735,123.692 230.729 C 124.767 230.706,132.263 229.712,132.370 229.578 C 132.430 229.505,133.492 227.528,134.731 225.185 L 136.983 220.926 137.222 213.889 L 137.461 206.852 136.174 201.121 L 134.886 195.390 135.776 193.633 C 136.530 192.146,136.916 190.746,136.574 190.739 C 136.523 190.737,134.565 190.392,132.222 189.971 C 126.144 188.879,121.762 188.165,121.069 188.156 C 120.637 188.150,120.406 188.624,120.236 189.867 M207.224 283.411 C 206.980 287.690,207.092 288.874,209.077 303.148 C 211.057 317.377,211.202 318.922,211.388 327.677 C 211.562 335.827,211.663 337.044,212.182 337.204 C 212.510 337.305,215.143 337.801,218.033 338.305 L 223.288 339.222 230.515 344.878 L 237.742 350.533 244.665 352.642 C 252.741 355.102,251.588 355.306,255.648 350.697 C 260.451 345.244,260.788 345.881,250.153 340.314 L 241.416 335.741 235.956 327.963 C 232.953 323.685,230.396 320.011,230.273 319.798 C 230.150 319.585,230.704 312.918,231.504 304.983 C 232.896 291.182,233.285 284.419,232.685 284.466 C 232.532 284.478,230.505 284.700,228.181 284.959 C 224.064 285.418,223.819 285.403,218.793 284.387 C 213.383 283.293,213.585 283.386,208.649 279.724 L 207.484 278.859 207.224 283.411 M161.581 298.649 L 160.527 303.148 162.695 315.926 C 165.194 330.655,165.823 338.170,164.941 342.738 C 163.092 352.310,163.482 354.341,168.786 362.735 C 171.070 366.350,183.059 381.852,184.169 382.626 C 184.517 382.869,202.499 378.884,203.252 378.397 C 204.051 377.880,200.843 372.774,188.891 355.538 C 185.706 350.945,182.968 346.974,182.807 346.713 C 180.772 343.421,182.076 315.093,184.795 303.519 C 185.226 301.685,185.655 299.935,185.748 299.630 C 185.895 299.147,185.075 299.091,179.529 299.202 L 173.142 299.329 168.701 297.552 C 166.258 296.575,163.894 295.409,163.447 294.962 L 162.635 294.150 161.581 298.649 "
            stroke="none" fill="{{human_skin_color}}" fill-rule="evenodd"></path>
        <path id="path1"
            d="M206.062 23.366 C 205.335 23.577,204.818 24.014,204.677 24.536 C 204.454 25.367,204.450 25.367,203.610 24.325 C 202.191 22.564,196.296 24.458,196.296 26.674 C 196.296 27.844,195.979 28.053,195.272 27.346 C 194.489 26.563,191.321 28.842,191.180 30.291 C 191.094 31.178,190.883 31.481,190.353 31.481 C 189.878 31.481,189.345 32.065,188.745 33.241 C 188.145 34.416,187.458 35.168,186.674 35.506 C 186.028 35.785,185.369 36.368,185.209 36.803 C 183.738 40.790,183.707 41.228,184.806 42.398 C 185.280 42.903,185.484 43.459,185.336 43.845 C 185.196 44.210,185.359 44.764,185.727 45.170 C 186.327 45.833,186.311 45.899,185.402 46.495 C 184.738 46.930,184.444 47.450,184.444 48.191 C 184.444 48.778,184.290 49.259,184.101 49.259 C 181.906 49.259,182.443 55.835,184.707 56.696 C 185.266 56.909,185.556 57.322,185.556 57.908 C 185.556 59.109,186.212 59.573,188.067 59.682 C 189.838 59.787,191.852 58.288,191.852 56.864 C 191.852 55.253,196.143 51.755,202.567 48.130 L 208.653 44.696 213.308 44.141 C 219.952 43.349,220.855 43.549,224.239 46.572 L 226.983 49.023 226.771 51.548 C 226.651 52.980,226.706 54.074,226.898 54.074 C 227.204 54.074,230.197 51.757,231.425 50.569 C 232.090 49.926,231.481 48.725,229.717 47.197 L 228.405 46.061 230.344 43.188 L 232.283 40.314 231.095 37.367 C 229.788 34.125,229.104 33.515,226.946 33.664 C 225.198 33.785,224.514 32.528,225.097 30.267 C 225.661 28.083,221.996 25.751,220.347 27.243 C 219.648 27.876,219.630 27.852,219.630 26.333 C 219.630 24.854,219.549 24.737,218.056 24.080 C 214.996 22.734,214.592 22.747,213.637 24.221 C 212.597 25.826,212.528 25.837,211.929 24.484 C 211.265 22.984,208.920 22.538,206.062 23.366 "
            stroke="none" fill="{{human_hair_color}}" fill-rule="evenodd"></path>
        <path id="path2"
            d="M193.241 54.704 C 192.477 55.495,191.852 56.493,191.852 56.922 C 191.852 57.866,189.467 60.056,188.741 59.778 C 187.750 59.397,187.734 60.401,188.679 63.686 C 189.785 67.531,189.826 68.584,189.057 73.327 C 188.419 77.261,188.622 77.778,190.802 77.778 C 192.333 77.778,201.566 81.494,209.862 85.449 L 213.984 87.414 217.859 85.604 L 221.734 83.795 221.968 80.232 C 222.182 76.977,222.375 76.277,224.208 72.131 C 228.040 63.460,228.148 63.144,228.148 60.595 L 228.148 58.206 226.224 56.522 C 223.922 54.509,224.501 54.604,211.481 54.083 C 206.083 53.866,200.083 53.594,198.148 53.478 L 194.630 53.266 193.241 54.704 M181.564 77.832 C 179.770 78.089,177.357 79.078,171.001 82.162 L 162.763 86.158 161.225 88.727 C 159.548 91.528,159.628 92.677,161.386 91.051 C 161.948 90.532,163.660 89.426,165.192 88.594 L 167.976 87.080 170.096 87.779 C 175.094 89.428,177.199 92.211,178.612 99.036 C 181.132 111.207,178.780 129.903,175.273 125.572 L 174.622 124.768 170.935 127.752 C 168.907 129.394,167.075 130.706,166.864 130.670 C 165.271 130.392,163.243 131.264,162.352 132.610 L 161.408 134.037 163.189 139.333 L 164.971 144.630 165.051 154.781 L 165.131 164.933 166.441 166.243 L 167.751 167.554 172.672 167.825 C 187.888 168.665,197.904 168.799,214.281 168.383 L 226.895 168.063 232.244 169.572 C 235.186 170.402,239.696 171.603,242.267 172.241 L 246.942 173.401 252.267 170.563 C 255.196 169.001,257.750 167.570,257.943 167.381 C 258.935 166.414,252.229 147.029,248.849 141.089 C 247.270 138.314,247.184 138.237,239.674 132.843 L 232.093 127.397 223.389 117.310 C 218.602 111.762,210.543 102.306,205.480 96.296 C 196.718 85.897,196.029 85.179,191.193 81.392 C 185.667 77.066,186.015 77.194,181.564 77.832 M232.963 186.898 L 220.926 190.765 209.630 190.565 C 195.451 190.314,177.305 189.158,170.661 188.082 C 164.669 187.111,165.340 186.730,164.640 191.501 C 164.328 193.629,163.333 198.954,162.430 203.333 C 160.512 212.630,159.527 223.493,158.884 242.407 C 158.676 248.519,158.255 257.852,157.948 263.148 C 157.412 272.389,157.417 272.860,158.081 274.813 C 158.763 276.819,158.762 276.876,158.022 278.909 L 157.271 280.970 158.163 284.988 C 159.152 289.443,162.375 294.828,164.686 295.887 C 165.266 296.153,167.407 297.037,169.444 297.852 L 173.148 299.333 179.630 299.182 L 186.111 299.031 190.094 296.809 C 194.048 294.603,194.094 294.562,196.516 290.999 L 198.956 287.411 198.843 283.006 L 198.729 278.601 200.456 276.579 C 201.406 275.467,202.464 273.854,202.808 272.995 C 203.556 271.125,203.639 271.196,205.203 275.077 C 206.429 278.115,206.430 278.117,210.037 280.731 L 213.646 283.346 218.809 284.390 C 224.032 285.446,229.723 285.363,233.732 284.172 C 235.210 283.733,237.989 280.302,239.820 276.657 L 241.480 273.351 241.082 269.690 L 240.684 266.030 241.788 264.219 C 245.245 258.551,249.572 241.809,253.714 218.079 L 255.568 207.454 255.469 197.894 L 255.370 188.333 250.556 185.673 C 244.763 182.474,247.284 182.298,232.963 186.898 "
            stroke="none" fill="{{primary_color}}" fill-rule="evenodd"></path>
        <path id="path3"
            d="M210.327 47.080 C 208.720 48.688,210.100 52.593,212.276 52.593 C 213.878 52.593,214.815 51.507,214.815 49.652 C 214.815 46.722,212.190 45.218,210.327 47.080 M223.886 50.138 C 222.785 51.817,223.891 55.185,225.542 55.185 C 226.760 55.185,227.064 52.780,226.130 50.544 C 225.504 49.046,224.697 48.900,223.886 50.138 M260.000 169.444 C 260.000 170.361,260.167 171.111,260.370 171.111 C 260.574 171.111,260.741 170.361,260.741 169.444 C 260.741 168.528,260.574 167.778,260.370 167.778 C 260.167 167.778,260.000 168.528,260.000 169.444 "
            stroke="none" fill="{{human_eye_color}}" fill-rule="evenodd"></path>
    </g>
</svg>